<svg width="256" height="256" viewBox="0 0 256 256" fill="none" xmlns="http://www.w3.org/2000/svg">
<path d="M53.1779 52.8414C44.6125 61.7268 37.8952 71.7721 33.0259 82.9774" stroke="#729E86" stroke-width="2"/>
<path d="M33.0255 82.9773C32.7909 83.6386 32.5456 84.012 32.2896 84.0973" stroke="#639884" stroke-width="2"/>
<path d="M79.1933 33.7773C69.3586 38.8013 60.6866 45.156 53.1772 52.8413" stroke="#72A189" stroke-width="2"/>
<path d="M233.122 143.481C236.522 109.041 226.794 76.5854 201.994 51.9934" stroke="#5C9B8A" stroke-width="2"/>
<path d="M201.993 51.9934C190.761 41.0707 177.729 33.0067 162.897 27.8014" stroke="#6FA490" stroke-width="2"/>
<path d="M162.898 27.8013C134.818 17.6093 105.53 20.2413 79.1938 33.7773" stroke="#74A58D" stroke-width="2"/>
<path d="M162.897 27.8014C161.271 29.1187 159.543 29.5054 157.713 28.9614C157.479 28.8921 157.247 28.9001 157.017 28.9854L150.617 31.3534C150.34 31.4547 150.201 31.6521 150.201 31.9454C150.201 33.4334 149.553 34.3774 148.257 34.7774C144.081 36.0734 140.209 38.4174 136.129 40.1054C135.313 40.4414 134.519 41.1694 133.745 42.2894C133.596 42.5027 133.647 42.6494 133.897 42.7294C134.943 43.0601 135.855 43.6281 136.633 44.4334C136.665 44.4707 136.681 44.5161 136.681 44.5694C136.676 44.6387 136.665 44.7081 136.649 44.7774C136.607 44.9161 136.657 44.9854 136.801 44.9854C137.993 44.9854 138.513 46.9134 137.761 47.0894" stroke="#AACCA2" stroke-width="2"/>
<path d="M137.762 47.0893L134.594 45.3773" stroke="#6E705C" stroke-width="2"/>
<path d="M134.593 45.3773C135.473 44.2733 133.033 43.6973 132.289 43.3853C127.111 41.2093 121.441 40.0493 115.281 39.9053C96.9533 39.4813 77.7934 44.7133 64.6974 57.8973C64.4147 58.1853 64.1267 58.6386 63.8333 59.2573C63.2253 60.5453 61.8173 61.3933 61.2253 62.2973C57.8333 67.4813 55.6493 73.148 54.6733 79.2973" stroke="#D3CD9B" stroke-width="2"/>
<path d="M54.6739 79.2973C53.1859 79.452 52.3912 78.9667 52.2899 77.8413C52.2776 77.7104 52.234 77.5845 52.163 77.4745C52.0919 77.3644 51.9955 77.2735 51.8819 77.2093C50.6872 76.5373 49.6339 76.7133 48.7219 77.7373C48.5459 77.9347 48.3326 78.0787 48.0819 78.1693C47.6979 78.3053 37.3939 81.2093 37.2659 82.6253C37.2499 82.86 37.1299 83.012 36.9059 83.0813C36.2926 83.2787 35.6952 83.2067 35.1139 82.8653C34.8526 82.716 34.6526 82.7747 34.5139 83.0413L34.2499 83.5213C34.0472 83.9053 33.8072 83.9293 33.5299 83.5933L33.0259 82.9773" stroke="#A0C89C" stroke-width="2"/>
<path d="M201.994 51.9934L201.578 52.9454C201.434 53.292 201.548 53.4654 201.922 53.4654H202.29C202.333 53.468 202.374 53.4852 202.406 53.514C202.438 53.5428 202.46 53.5816 202.467 53.6241C202.474 53.6666 202.467 53.7104 202.447 53.7484C202.426 53.7864 202.393 53.8163 202.354 53.8334C201.372 54.196 200.692 54.1427 200.314 53.6734C200.138 53.4494 199.911 53.3 199.634 53.2254C198.439 52.9 197.383 52.324 196.466 51.4974C196.263 51.3107 196.05 51.3 195.826 51.4654C194.658 52.3294 194.444 53.4147 195.186 54.7214C195.218 54.78 195.212 54.8334 195.17 54.8814C195.111 54.94 195.063 54.9907 195.026 55.0334C195.02 55.0403 195.018 55.0487 195.018 55.0574C195.018 55.066 195.02 55.0744 195.026 55.0814C195.959 56.404 196.948 57.676 197.994 58.8974C198.159 59.0894 198.18 59.2974 198.058 59.5214C197.924 59.7614 197.852 60.036 197.842 60.3454" stroke="#92C39F" stroke-width="2"/>
<path d="M197.842 60.3455C194.247 56.0095 189.868 52.7801 184.706 50.6575" stroke="#60695A" stroke-width="2"/>
<path d="M184.706 50.6573C174.999 45.756 165.367 45.8307 155.81 50.8813" stroke="#797865" stroke-width="2"/>
<path d="M155.81 50.8815C152.54 52.8975 149.791 55.3295 147.562 58.1775C147.364 58.4335 147.191 58.4175 147.042 58.1295C144.727 53.7081 141.634 50.0281 137.762 47.0895" stroke="#6A6F5F" stroke-width="2"/>
<path d="M134.594 45.3772L129.521 43.4652" stroke="#937058" stroke-width="2"/>
<path d="M129.522 43.4654C107.098 36.9454 76.8577 45.6414 62.3857 64.1614" stroke="#A2795E" stroke-width="2"/>
<path d="M62.3858 64.1614C58.6631 69.4307 56.2738 75.2867 55.2178 81.7294" stroke="#9B755B" stroke-width="2"/>
<path d="M55.2177 81.7292C54.1084 82.4066 53.9271 81.5959 54.6737 79.2972" stroke="#C4C898" stroke-width="2"/>
<path d="M129.521 43.4652C128.257 44.9372 131.409 45.2972 132.329 45.7932" stroke="#3D1C1F" stroke-width="2"/>
<path d="M132.33 45.7933C132.175 46.1293 132.204 46.5107 132.418 46.9373C132.471 47.0434 132.489 47.1642 132.469 47.2821C132.449 47.4 132.392 47.509 132.306 47.5933C131.671 48.2227 130.916 48.444 130.042 48.2573C129.834 48.2147 129.642 48.252 129.466 48.3693C128.452 49.0307 127.324 49.388 126.082 49.4413C125.922 49.4489 125.769 49.5076 125.647 49.6086C125.524 49.7096 125.438 49.8475 125.402 50.0013L125.194 50.8653C125.163 50.9932 125.095 51.1091 125 51.1987C124.905 51.2883 124.786 51.3476 124.658 51.3693C112.834 53.268 101.602 56.9213 90.9616 62.3293C88.1696 63.7453 85.3295 65.8973 82.4655 67.6333C82.383 67.6863 82.2849 67.7096 82.1873 67.6994C82.0898 67.6892 81.9986 67.6462 81.9288 67.5773C81.859 67.5084 81.8146 67.4178 81.8032 67.3204C81.7917 67.223 81.8136 67.1246 81.8655 67.0413L83.1055 64.8893C83.1486 64.8202 83.1663 64.7382 83.1556 64.6575C83.145 64.5767 83.1067 64.5021 83.0472 64.4465C82.9878 64.3908 82.9109 64.3575 82.8296 64.3521C82.7483 64.3468 82.6677 64.3699 82.6015 64.4173C78.4495 67.2493 76.1775 70.0093 73.9375 74.4333C72.9935 76.2893 71.5856 77.764 69.7136 78.8573C69.6615 78.8881 69.6034 78.9074 69.5431 78.9139C69.4828 78.9204 69.4216 78.914 69.3636 78.8952C69.3055 78.8763 69.2518 78.8454 69.206 78.8044C69.1602 78.7635 69.1232 78.7134 69.0975 78.6573L67.8175 75.7533C67.7108 75.5027 67.7189 75.2573 67.8415 75.0173C70.1242 70.692 73.1802 67.0173 77.0095 63.9933C77.1166 63.9088 77.1898 63.7884 77.2161 63.6536C77.2425 63.5188 77.2203 63.3784 77.1535 63.2573C76.9935 62.9747 76.7508 62.9533 76.4255 63.1933C70.5695 67.5613 66.5109 73.236 64.2495 80.2173C64.1749 80.452 64.0229 80.6227 63.7935 80.7293L60.6975 82.1053C60.5429 82.173 60.3685 82.1792 60.2105 82.1226C60.0526 82.0659 59.9233 81.9509 59.8495 81.8013C59.3162 80.724 58.4709 80.028 57.3136 79.7133C56.9989 79.628 56.8762 79.4253 56.9455 79.1053C57.9429 74.4813 59.7215 70.1933 62.2815 66.2413C62.5855 65.7773 62.6202 65.084 62.3855 64.1613" stroke="#452122" stroke-width="2"/>
<path d="M117.314 44.8654C117.429 44.7734 117.513 44.6477 117.554 44.5057C117.594 44.3637 117.589 44.2124 117.538 44.0728C117.488 43.9331 117.396 43.8119 117.274 43.7261C117.152 43.6402 117.007 43.5938 116.858 43.5934C106.642 43.6414 95.2897 45.6654 88.2977 53.3934C88.277 53.4193 88.2649 53.4509 88.263 53.484C88.261 53.5171 88.2694 53.55 88.287 53.5781C88.3045 53.6062 88.3304 53.6281 88.361 53.6409C88.3915 53.6537 88.4254 53.6566 88.4577 53.6494C97.215 51.2441 105.938 48.756 114.626 46.1854C115.735 45.86 116.631 45.42 117.314 44.8654Z" stroke="#A2795E" stroke-width="2"/>
<path d="M155.81 50.8812C156.06 53.0626 154.996 54.9426 152.618 56.5212C152.38 56.6816 152.207 56.9197 152.13 57.1932C151.863 58.1852 152.106 58.8439 152.858 59.1692C152.963 59.2143 153.058 59.2818 153.137 59.3672C153.215 59.4527 153.276 59.5542 153.314 59.6652L153.946 61.5452C153.982 61.6566 154.06 61.7498 154.164 61.8062C154.268 61.8626 154.39 61.878 154.506 61.8492C158.818 60.8572 162.962 60.8332 167.482 60.4732C171.626 60.1532 176.034 62.2012 179.906 64.2972C180.362 64.5452 181.202 64.4252 181.642 64.1372C181.828 64.0199 182.012 64.0199 182.194 64.1372C183.554 65.0386 184.69 64.8812 185.602 63.6652C185.794 63.4092 185.89 63.1212 185.89 62.8012V61.9452C185.89 61.6626 186.031 61.5372 186.314 61.5692C186.81 61.6332 187.29 61.7639 187.754 61.9612C191.226 63.4412 191.29 58.4572 193.13 56.7212" stroke="#3D1C1F" stroke-width="2"/>
<path d="M193.129 56.7214C198.025 61.2974 201.351 66.4788 203.105 72.2654C204.929 78.2708 205.532 84.7401 204.913 91.6734C204.892 91.8548 204.809 92.0014 204.665 92.1134L204.217 92.4414C203.945 92.6388 203.823 92.9054 203.849 93.2414C204.132 96.9801 203.5 100.548 201.953 103.945C201.799 104.281 201.679 104.268 201.593 103.905L201.417 103.177C201.38 103.012 201.279 102.919 201.113 102.897C200.132 102.769 199.295 102.324 198.601 101.561C198.521 101.473 198.459 101.369 198.421 101.255C198.382 101.14 198.367 101.019 198.377 100.897C198.564 98.4814 198.489 96.0681 198.153 93.6574C198.095 93.2468 197.967 93.2228 197.769 93.5854C196.257 96.3374 197.137 99.0814 196.153 101.705C196.063 101.961 195.884 102.057 195.617 101.993C194.956 101.828 194.308 101.94 193.673 102.329C193.46 102.463 193.233 102.484 192.993 102.393L190.193 101.305C189.815 101.161 189.58 101.287 189.489 101.681C189.468 101.793 189.401 101.884 189.289 101.953C188.964 102.167 188.809 102.079 188.825 101.689L188.873 100.041C188.879 99.8388 188.783 99.7134 188.585 99.6654C188.009 99.5374 187.761 99.2708 187.841 98.8654C187.889 98.615 187.861 98.3562 187.761 98.1214C186.727 95.6308 185.527 93.2281 184.161 90.9134C183.209 89.2894 179.801 85.3454 178.241 84.4174C169.849 79.4334 161.417 77.0734 152.689 74.0254C149.793 73.0094 145.385 70.8334 145.033 67.3534C145.012 67.1561 144.9 67.0628 144.697 67.0734C142.767 67.1908 141.535 67.5588 141.001 68.1774C128.673 82.5054 109.113 81.4654 93.1694 88.8574C86.7134 91.8494 79.1215 91.3694 75.2975 98.8094C74.0975 101.145 73.2175 107.185 73.4095 109.825C73.7455 114.524 73.4708 119.204 72.5854 123.865C72.5374 124.127 72.3881 124.303 72.1375 124.393C70.0815 125.161 70.4575 127.481 67.5615 126.801C67.3055 126.743 67.0521 126.756 66.8015 126.841C65.9108 127.151 65.1561 126.911 64.5375 126.121C64.3615 125.892 64.2841 125.633 64.3055 125.345C64.3695 124.492 64.2094 123.551 63.8254 122.521C61.2708 115.737 58.8574 108.073 56.5854 99.5294" stroke="#240D14" stroke-width="2"/>
<path d="M56.5854 99.5293C58.3721 100.132 59.0068 98.8413 58.4895 95.6573C58.4361 95.316 58.5775 95.1133 58.9135 95.0493L61.6734 94.5053C61.7291 94.4936 61.7805 94.4682 61.8226 94.4317C61.8646 94.3952 61.896 94.3489 61.9135 94.2973L62.7535 92.0573C62.8548 91.78 63.0388 91.7 63.3055 91.8173C66.4575 93.2093 67.6174 90.7613 69.3214 88.3373C70.1588 87.1373 70.6308 85.772 70.7375 84.2413C70.7534 84.0084 70.8102 83.7783 70.9055 83.5613L72.1135 80.8733C72.2201 80.6387 72.3748 80.4467 72.5774 80.2973C74.1614 79.1613 76.8815 74.3293 78.6095 74.9293C78.7449 74.9767 78.8661 75.0576 78.9618 75.1646C79.0574 75.2715 79.1244 75.401 79.1563 75.5409C79.1883 75.6808 79.1843 75.8265 79.1446 75.9644C79.1049 76.1023 79.0309 76.2278 78.9294 76.3293C77.0414 78.2173 75.5695 80.4653 75.3055 83.0493C75.1855 84.2733 73.7455 84.4413 73.8095 85.9693C73.8111 86.0307 73.8293 86.0904 73.8625 86.1421C73.8956 86.1938 73.9423 86.2357 73.9978 86.2635C74.0533 86.2912 74.1155 86.3038 74.178 86.2999C74.2406 86.296 74.3011 86.2758 74.3535 86.2413C87.5055 77.3133 101.633 72.5693 118.241 66.0013C121.793 64.5987 125.423 63.4253 129.129 62.4813C131.329 61.9213 133.609 60.8093 136.081 60.3773C136.364 60.324 136.572 60.172 136.705 59.9213C137.313 58.7853 138.244 58.0813 139.497 57.8093C139.666 57.7741 139.819 57.6853 139.933 57.5563C140.047 57.4272 140.117 57.2647 140.131 57.093C140.145 56.9213 140.104 56.7496 140.013 56.6033C139.922 56.4571 139.786 56.3442 139.625 56.2813C136.052 54.884 132.319 54.276 128.425 54.4573C128.246 54.4683 128.069 54.417 127.923 54.3122C127.778 54.2073 127.673 54.0551 127.626 53.881C127.579 53.707 127.593 53.5215 127.666 53.3556C127.739 53.1897 127.866 53.0534 128.025 52.9693C130.849 51.4893 135.857 54.0893 138.449 53.0493C138.771 52.9203 139.057 52.7083 139.275 52.4369C139.492 52.1656 139.633 51.8455 139.682 51.5122C139.731 51.179 139.686 50.8457 139.552 50.5493C139.417 50.2529 139.199 50.0051 138.921 49.8333L132.329 45.7933" stroke="#36181C" stroke-width="2"/>
<path d="M56.5854 99.5293C56.004 94.1586 55.8387 88.9879 56.0894 84.0173C56.1107 83.6759 55.9614 83.5666 55.6414 83.6893C55.3534 83.7959 55.0307 84.2119 54.6733 84.9373" stroke="#2C1217" stroke-width="2"/>
<path d="M54.6733 84.9372L55.2173 81.7292" stroke="#68705C" stroke-width="2"/>
<path d="M184.706 50.6575L193.13 56.7215" stroke="#33161A" stroke-width="2"/>
<path d="M197.841 60.3453C199.777 62.564 201.407 65.084 202.729 67.9053" stroke="#4C6054" stroke-width="2"/>
<path d="M202.73 67.9055C211.154 87.7055 204.522 108.738 195.09 126.602C194.956 126.852 195.026 127.026 195.298 127.122C201.047 129.18 205.49 132.914 208.626 138.322" stroke="#3C5550" stroke-width="2"/>
<path d="M208.626 138.322C216.714 151.306 218.442 167.498 211.77 181.57" stroke="#4C6054" stroke-width="2"/>
<path d="M211.77 181.569C201.666 199.633 183.402 206.361 163.298 203.961" stroke="#3C5550" stroke-width="2"/>
<path d="M163.298 203.961L161.994 203.842C161.701 203.815 161.495 203.666 161.378 203.394C157.874 195.335 152.013 189.7 143.794 186.49" stroke="#604C28" stroke-width="2"/>
<path d="M143.793 186.489L141.393 186.073C141.105 186.025 140.881 186.121 140.721 186.361C140.364 186.9 140.007 186.988 139.649 186.625" stroke="#42291A" stroke-width="2"/>
<path d="M139.649 186.625C140.569 185.097 137.481 185.249 136.153 185.113" stroke="#7E422B" stroke-width="2"/>
<path d="M136.154 185.114C135.178 183.935 135.007 182.538 135.642 180.922" stroke="#753C31" stroke-width="2"/>
<path d="M135.642 180.921C153.274 179.545 172.354 173.241 180.826 156.097C180.996 155.745 181.252 155.665 181.594 155.857L183.41 156.857C183.666 157.001 183.935 157.105 184.218 157.169C192.308 158.988 198.506 156.916 202.81 150.953C206.97 145.185 206.89 138.969 202.05 133.705C199.842 131.313 195.154 128.649 191.962 130.257C189.394 131.553 188.194 136.449 188.074 139.001" stroke="#894E3A" stroke-width="2"/>
<path d="M188.073 139.001C188.073 141.028 188.327 142.988 188.833 144.881C189.26 146.455 188.74 146.983 187.273 146.465C187.054 146.387 186.86 146.252 186.713 146.073C184.927 143.892 183.572 141.127 182.649 137.777" stroke="#824534" stroke-width="2"/>
<path d="M182.649 137.777L182.345 129.473" stroke="#8B5D48" stroke-width="2"/>
<path d="M182.346 129.473C182.922 116.78 182.914 107.647 182.322 102.073C181.538 94.7374 176.618 91.3374 169.722 88.7534C159.954 85.0894 151.538 81.5534 144.09 73.9534C143.887 73.7507 143.695 73.7561 143.514 73.9694C134.658 84.3454 118.522 88.0894 105.058 90.2254" stroke="#894E3A" stroke-width="2"/>
<path d="M105.057 90.2253C94.9028 91.9907 88.3774 93.3293 85.4814 94.2413C77.6334 96.7213 75.2734 103.297 75.2734 110.865C75.2734 117.863 75.2841 124.844 75.3055 131.809" stroke="#8B5D48" stroke-width="2"/>
<path d="M75.3058 131.809C74.9058 131.905 74.7297 131.793 74.7777 131.473" stroke="#824534" stroke-width="2"/>
<path d="M74.7773 131.473C70.5 129.255 66.5694 129.212 62.9854 131.345" stroke="#894E3A" stroke-width="2"/>
<path d="M62.9856 131.345C55.5216 134.217 52.4976 141.497 55.3696 149.121" stroke="#896A53" stroke-width="2"/>
<path d="M55.3696 149.121C60.5483 157.02 67.7696 159.153 77.0336 155.521" stroke="#894E3A" stroke-width="2"/>
<path d="M77.0336 155.521C76.8416 155.217 77.0176 155.068 77.5616 155.073" stroke="#824534" stroke-width="2"/>
<path d="M77.5615 155.073C82.6655 169.673 97.3935 176.881 111.898 179.449" stroke="#8B6351" stroke-width="2"/>
<path d="M111.897 179.449L120.169 180.713" stroke="#894E3A" stroke-width="2"/>
<path d="M120.169 180.713C120.191 182.004 119.94 183.183 119.417 184.249" stroke="#753C31" stroke-width="2"/>
<path d="M119.418 184.249C119.06 184.66 118.626 184.873 118.114 184.889" stroke="#7E422B" stroke-width="2"/>
<path d="M118.114 184.889L115.082 185.465" stroke="#854A30" stroke-width="2"/>
<path d="M115.081 185.465L110.441 186.609" stroke="#42291A" stroke-width="2"/>
<path d="M110.441 186.609L104.673 189.057" stroke="#604C28" stroke-width="2"/>
<path d="M104.674 189.057C94.3539 193.801 91.3539 215.289 90.7939 225.297" stroke="#8B6351" stroke-width="2"/>
<path d="M90.7934 225.297C90.4014 223.513 90.3934 221.673 89.4814 220.057C80.4334 204.041 67.0734 191.033 54.2654 179.089C49.1027 174.268 44.9881 168.86 41.9214 162.865" stroke="#3C5550" stroke-width="2"/>
<path d="M41.9216 162.865C39.6709 157.953 38.0843 152.812 37.1616 147.441" stroke="#566454" stroke-width="2"/>
<path d="M37.1614 147.441L37.0894 146.097" stroke="#8B755E" stroke-width="2"/>
<path d="M37.0894 146.097C37.212 145.948 37.364 145.871 37.5454 145.865C37.6578 145.86 37.7686 145.895 37.8589 145.964C37.9493 146.032 38.0138 146.13 38.0414 146.241C39.3374 151.847 41.2947 157.196 43.9134 162.289C44.8814 164.177 46.4574 164.657 48.3854 164.137C48.6894 164.057 48.836 163.86 48.8253 163.545C48.7533 161.033 48.2174 155.441 51.0414 154.817C51.0973 154.806 51.1504 154.784 51.1976 154.751C51.2448 154.719 51.2851 154.677 51.3164 154.629C51.3476 154.581 51.3691 154.527 51.3795 154.47C51.39 154.413 51.3893 154.354 51.3773 154.297C50.6653 150.865 49.2253 143.049 52.2173 141.169C52.42 141.047 52.5587 140.873 52.6333 140.649C54.052 136.596 56.316 133.105 59.4253 130.177C59.644 129.975 59.7293 129.727 59.6813 129.433C59.404 127.737 59.8894 126.284 61.1374 125.073C61.2269 124.986 61.2958 124.88 61.3387 124.764C61.3817 124.648 61.3976 124.524 61.3854 124.401C61.0387 120.401 60.1614 116.532 58.7534 112.793C58.6734 112.585 58.524 112.465 58.3054 112.433L55.8173 112.065" stroke="#240D14" stroke-width="2"/>
<path d="M55.8174 112.065L57.6174 111.377C57.7443 111.326 57.8544 111.241 57.9351 111.131C58.0157 111.02 58.0636 110.89 58.0734 110.753C58.0947 110.311 57.9241 109.881 57.5614 109.465" stroke="#8B755E" stroke-width="2"/>
<path d="M57.5615 109.465C55.5455 101.113 53.8655 94.5133 54.6735 84.9373" stroke="#566454" stroke-width="2"/>
<path d="M233.121 143.481C232.38 150.921 230.841 158.175 228.505 165.241" stroke="#5A9886" stroke-width="2"/>
<path d="M228.505 165.241C226.415 171.337 223.809 177.233 220.689 182.929" stroke="#588B7C" stroke-width="2"/>
<path d="M220.69 182.929C220.05 182.951 219.532 182.716 219.138 182.225C218.978 182.028 218.78 181.972 218.546 182.057L217.978 182.273C217.919 182.294 217.857 182.3 217.795 182.291C217.734 182.283 217.676 182.259 217.625 182.223C217.575 182.187 217.534 182.139 217.506 182.084C217.479 182.029 217.465 181.967 217.466 181.905C217.498 180.711 217.212 179.639 216.61 178.689C216.45 178.449 216.252 178.412 216.018 178.577L213.578 180.321C213.418 180.433 213.287 180.577 213.186 180.753C212.892 181.265 212.42 181.537 211.77 181.569" stroke="#6EAF95" stroke-width="2"/>
<path d="M208.625 138.321C208.999 138.012 209.463 137.911 210.017 138.017C210.3 138.071 210.511 137.975 210.65 137.729C224.09 113.937 223.409 87.6013 206.617 65.5373C206.534 65.4287 206.419 65.349 206.287 65.3093C206.156 65.2697 206.016 65.2721 205.886 65.3162C205.757 65.3603 205.644 65.4439 205.564 65.5553C205.484 65.6667 205.441 65.8003 205.442 65.9373C205.442 66.4813 205.178 66.7293 204.65 66.6813C204.383 66.66 204.18 66.764 204.042 66.9933C203.695 67.548 203.257 67.852 202.729 67.9053" stroke="#6EAF95" stroke-width="2"/>
<path d="M182.346 129.473L182.298 127.417C182.292 127.204 182.188 127.084 181.986 127.057L181.73 127.025C181.468 126.988 181.332 126.839 181.322 126.577C181.274 125.497 180.698 124.673 180.706 123.657C180.727 117.812 180.644 111.961 180.458 106.105C180.226 98.8094 178.858 93.6814 171.818 91.2974C166.98 89.6601 162.799 88.1161 159.274 86.6654C153.858 84.4334 148.738 80.8174 143.594 77.5854C143.373 77.4469 143.106 77.4009 142.85 77.4574C141.788 77.6921 141.111 78.3054 140.818 79.2974C140.738 79.5747 140.578 79.7961 140.338 79.9614C130.418 86.9134 117.618 90.4334 105.37 91.9854C105.167 92.0121 105.066 91.9214 105.066 91.7134L105.058 90.2254" stroke="#FAA472" stroke-width="2"/>
<path d="M57.5617 109.465C50.1057 112.025 44.5323 116.721 40.8417 123.553C36.1697 132.209 35.6497 137.953 36.2417 148.057C36.247 148.164 36.303 148.223 36.4097 148.233L36.6097 148.265C36.8657 148.297 37.0176 148.185 37.0656 147.929L37.1617 147.441" stroke="#C7D3A3" stroke-width="2"/>
<path d="M41.9218 162.865C41.8045 162.988 41.6552 163.063 41.4738 163.089C41.1965 163.121 40.9912 163.012 40.8579 162.761C38.7512 158.729 37.3218 154.465 36.5698 149.969C36.5485 149.841 36.4738 149.777 36.3458 149.777C36.0258 149.783 35.7165 149.655 35.4178 149.393C31.7698 146.193 31.4018 151.681 28.4258 151.705C28.1698 151.705 27.9698 151.815 27.8258 152.033L26.7778 153.593C26.6178 153.833 26.4525 153.836 26.2818 153.601C26.0098 153.233 25.6819 152.988 25.2979 152.865" stroke="#77B395" stroke-width="2"/>
<path d="M25.2978 152.865C20.9884 129.297 23.3191 106.375 32.2897 84.0973" stroke="#629380" stroke-width="2"/>
<path d="M37.4596 105.772C37.4401 105.637 37.3854 105.508 37.2986 105.393C37.2117 105.278 37.0945 105.179 36.9535 105.102C36.8125 105.025 36.6506 104.971 36.477 104.943C36.3033 104.915 36.1213 104.914 35.9414 104.94C35.5781 104.992 35.2453 105.151 35.0163 105.381C34.7872 105.611 34.6806 105.894 34.7199 106.167C34.7394 106.302 34.7941 106.431 34.8809 106.546C34.9677 106.661 35.085 106.76 35.226 106.837C35.3669 106.914 35.5289 106.968 35.7025 106.996C35.8762 107.024 36.0582 107.025 36.2381 106.999C36.6014 106.946 36.9342 106.788 37.1632 106.558C37.3923 106.328 37.4989 106.045 37.4596 105.772Z" stroke="#C1D5A9" stroke-width="2"/>
<path d="M182.65 137.777C181.61 139.644 181.18 141.884 181.362 144.497" stroke="#F39B6D" stroke-width="2"/>
<path d="M181.361 144.497C181.009 144.817 180.681 144.996 180.377 145.033" stroke="#FAA472" stroke-width="2"/>
<path d="M180.378 145.034L180.458 144.626C180.522 144.332 180.404 144.159 180.106 144.106C178.367 143.78 176.65 143.415 174.954 143.01C174.802 142.974 174.66 142.906 174.538 142.81C174.416 142.714 174.316 142.592 174.246 142.453C174.176 142.315 174.137 142.162 174.132 142.007C174.127 141.851 174.156 141.696 174.218 141.554C174.378 141.18 174.287 141.023 173.946 141.082C173.706 141.13 173.57 141.274 173.538 141.514C173.324 143.055 172.463 144.055 170.954 144.514" stroke="#FCBA8A" stroke-width="2"/>
<path d="M170.954 144.513C170.735 144.076 170.703 143.671 170.858 143.297" stroke="#FAD4BA" stroke-width="2"/>
<path d="M170.857 143.297C171.817 142.62 172.46 141.772 172.785 140.753C172.871 140.492 172.871 140.233 172.785 139.977C171.143 134.777 167.599 131.356 162.153 129.713" stroke="#945E45" stroke-width="2"/>
<path d="M162.154 129.713C153.146 126.537 145.458 134.569 149.722 143.441" stroke="#C76B4C" stroke-width="2"/>
<path d="M149.722 143.441L148.81 143.857" stroke="#FAD4BA" stroke-width="2"/>
<path d="M148.81 143.857C148.682 143.543 148.548 143.295 148.41 143.113C148.365 143.049 148.297 143.004 148.219 142.99C148.142 142.976 148.062 142.993 147.998 143.037C147.933 143.082 147.888 143.15 147.874 143.228C147.86 143.305 147.877 143.385 147.922 143.449C149.164 145.417 150.783 146.985 152.778 148.153C153.242 148.425 153.204 148.583 152.666 148.625C151.058 148.753 150.586 146.553 149.082 146.265C148.831 146.217 148.602 146.119 148.394 145.969L145.962 144.201C145.759 144.052 145.532 144.012 145.282 144.081C144.194 144.396 143.423 144.039 142.97 143.009C142.919 142.89 142.829 142.793 142.714 142.734C142.6 142.674 142.468 142.657 142.341 142.684C142.214 142.711 142.1 142.782 142.018 142.883C141.936 142.985 141.89 143.111 141.89 143.241V144.465C141.89 144.796 141.772 144.847 141.538 144.617L141.202 144.273C141.01 144.087 140.761 143.974 140.498 143.953C138.103 143.788 135.738 143.54 133.402 143.209C133.327 143.198 133.259 143.164 133.205 143.111C133.152 143.058 133.117 142.99 133.105 142.916C133.094 142.841 133.106 142.766 133.141 142.699C133.175 142.632 133.23 142.578 133.298 142.545L133.658 142.377C133.866 142.281 133.922 142.129 133.826 141.921C132.746 139.633 130.906 140.801 129.042 140.465C128.919 140.442 128.792 140.452 128.675 140.496C128.558 140.54 128.455 140.615 128.378 140.713C127.738 141.508 127.039 141.705 126.282 141.305C124.484 140.351 122.836 140.217 121.338 140.905C121.226 140.956 121.104 140.977 120.983 140.966C120.862 140.954 120.747 140.912 120.65 140.841C118.719 139.439 116.871 139.495 115.106 141.009C114.935 141.153 114.738 141.225 114.514 141.225C113.506 141.233 110.914 142.233 110.33 141.225C110.218 141.028 110.13 141.039 110.066 141.257C109.207 144.201 107.442 146.308 104.77 147.577" stroke="#FCBA8A" stroke-width="2"/>
<path d="M104.769 147.577C104.743 146.649 104.466 146.196 103.938 146.217" stroke="#FAD4BA" stroke-width="2"/>
<path d="M103.938 146.217C106.551 145.023 107.844 143.241 107.817 140.873" stroke="#B46D4D" stroke-width="2"/>
<path d="M107.817 140.873C108.175 138.836 107.828 136.793 106.777 134.745" stroke="#945E45" stroke-width="2"/>
<path d="M106.778 134.745C107.567 133.935 106.751 132.847 104.33 131.481" stroke="#A4664A" stroke-width="2"/>
<path d="M104.33 131.481C104.932 131.332 105.306 131.02 105.45 130.545C105.54 130.236 105.45 129.991 105.178 129.809L103.57 128.713C103.346 128.559 103.095 128.473 102.818 128.457C93.3776 127.961 84.7697 131.369 82.8097 141.409C82.7617 141.655 82.655 141.873 82.4896 142.065C80.4256 144.529 79.4763 147.079 79.6417 149.713C79.7323 151.089 79.7323 152.161 79.6417 152.929C79.6315 153.014 79.5932 153.092 79.5329 153.152C79.4725 153.211 79.3938 153.249 79.3094 153.258C79.225 153.268 79.14 153.248 79.0681 153.203C78.9963 153.158 78.9419 153.089 78.9137 153.009C78.4923 151.831 78.2043 150.633 78.0497 149.417C78.0123 149.156 77.863 149.036 77.6017 149.057C77.4257 149.079 77.223 149.167 76.9937 149.321" stroke="#FCBA8A" stroke-width="2"/>
<path d="M76.9937 149.321L75.3057 131.809" stroke="#F39B6D" stroke-width="2"/>
<path d="M86.5936 118.905C84.5056 121.129 82.6656 122.681 84.2736 125.393C84.307 125.451 84.3542 125.499 84.411 125.534C84.4678 125.569 84.5325 125.589 84.5995 125.593C84.6666 125.597 84.7339 125.584 84.7956 125.557C84.8574 125.529 84.9116 125.486 84.9536 125.433C88.8336 120.321 92.2897 116.425 99.0097 116.537C100.722 116.569 102.842 117.401 104.874 117.505C105.146 117.521 105.386 117.436 105.594 117.249C108.314 114.817 105.53 111.441 102.666 111.585C96.2389 111.911 90.8816 114.351 86.5936 118.905Z" stroke="#945E45" stroke-width="2"/>
<path d="M152.698 111.761C146.97 111.097 146.482 119.129 152.346 117.553C160.322 115.409 166.146 119.065 170.682 125.441C170.858 125.687 171.06 125.711 171.29 125.513C172.74 124.26 172.78 122.876 171.41 121.361C166.375 115.82 160.138 112.62 152.698 111.761Z" stroke="#945E45" stroke-width="2"/>
<path d="M25.2979 152.865L27.2499 160.865" stroke="#48847C" stroke-width="2"/>
<path d="M55.8177 112.065C41.8417 116.977 35.3537 132.041 37.0897 146.097" stroke="#957C63" stroke-width="2"/>
<path d="M54.0979 118.569C46.5059 122.089 39.4579 133.497 40.8979 142.177C40.9512 142.503 41.1298 142.604 41.4338 142.481C42.7778 141.943 43.9512 140.953 44.9539 139.513C46.7939 136.857 62.0498 116.801 54.4818 118.441C54.349 118.468 54.2201 118.511 54.0979 118.569Z" stroke="#703F27" stroke-width="2"/>
<path d="M104.33 131.481C95.2657 124.881 76.7057 139.193 87.1057 145.209" stroke="#A46C53" stroke-width="2"/>
<path d="M87.1055 145.209C88.6201 147.273 90.2948 148.201 92.1294 147.993" stroke="#D79564" stroke-width="2"/>
<path d="M92.1299 147.993C96.4232 149.071 100.637 148.932 104.77 147.577" stroke="#FADBC3" stroke-width="2"/>
<path d="M148.81 143.857C150.767 146.369 153.172 147.855 156.026 148.313C160.346 149.009 167.858 148.169 170.954 144.513" stroke="#FADBC3" stroke-width="2"/>
<path d="M180.378 145.033C177.81 155.225 172.666 159.425 164.642 165.801C156.41 172.337 145.69 176.153 135.482 178.129C131.658 178.873 127.434 178.745 123.402 178.857C117.682 179.017 112.93 178.065 107.594 176.681C107.536 176.666 107.475 176.669 107.419 176.692C107.364 176.714 107.317 176.754 107.286 176.806C107.255 176.858 107.241 176.918 107.246 176.98C107.251 177.041 107.274 177.099 107.314 177.145C107.735 177.636 108.276 177.975 108.938 178.161C109.146 178.22 109.356 178.252 109.57 178.257C110.476 178.268 111.252 178.665 111.898 179.449" stroke="#FAAB7C" stroke-width="2"/>
<path d="M77.5617 155.074L76.9937 149.322" stroke="#F3A276" stroke-width="2"/>
<path d="M130.481 155.921C127.921 156.433 126.753 157.129 123.865 155.569C123.817 155.543 123.761 155.533 123.707 155.542C123.652 155.55 123.602 155.577 123.564 155.617C123.526 155.658 123.503 155.71 123.499 155.765C123.494 155.82 123.507 155.875 123.537 155.921C124.929 158.097 128.745 157.185 130.577 156.177C131.1 155.884 131.068 155.799 130.481 155.921Z" stroke="#E69973" stroke-width="2"/>
<path d="M118.313 164.537C117.972 164.068 117.508 163.628 116.921 163.217C116.452 162.892 116.372 162.969 116.681 163.449C120.289 169.025 124.849 173.153 132.025 170.985C135.108 170.057 137.247 167.881 138.441 164.457" stroke="#A7634D" stroke-width="2"/>
<path d="M138.441 164.457C138.969 163.748 139.236 163.364 139.241 163.305C139.401 162.233 138.975 161.892 137.961 162.281C130.569 165.129 125.673 164.305 118.313 164.537" stroke="#F3A276" stroke-width="2"/>
<path d="M138.441 164.457C134.105 165.865 121.985 168.121 118.313 164.537" stroke="#9E4530" stroke-width="2"/>
<path d="M162.154 129.713C155.986 130.569 149.882 131.849 150.09 139.049C150.143 140.937 150.922 142.316 152.426 143.185" stroke="#601611" stroke-width="2"/>
<path d="M152.426 143.185C152.639 143.777 152.999 144.193 153.506 144.433C153.703 144.524 153.903 144.532 154.106 144.457L159.762 142.377C159.993 142.29 160.248 142.296 160.474 142.393L161.778 142.961" stroke="#802519" stroke-width="2"/>
<path d="M161.778 142.961C157.644 147.703 153.626 147.863 149.722 143.441" stroke="#C68C86" stroke-width="2"/>
<path d="M74.7774 131.473C74.1854 131.649 73.6867 131.959 73.2814 132.401C73.1161 132.583 73.0254 132.799 73.0094 133.049L72.7534 137.761C72.7375 137.989 72.7674 138.22 72.8414 138.441C73.0547 139.076 72.8547 139.532 72.2414 139.809C68.3694 141.561 64.1534 143.449 64.2654 148.273C64.3774 153.377 70.4094 155.249 74.4414 155.401C74.7168 155.412 74.9888 155.333 75.2174 155.177L76.2494 154.481C76.5001 154.311 76.6707 154.369 76.7614 154.657L77.0334 155.521" stroke="#F18C5F" stroke-width="2"/>
<path d="M55.3696 149.121L55.8176 148.593C55.9776 148.407 56.031 148.193 55.9776 147.953C54.5323 141.532 56.8683 135.996 62.9856 131.345" stroke="#F8B17E" stroke-width="2"/>
<path d="M106.778 134.745C104.5 132.628 102.119 131.863 99.6338 132.449" stroke="#3D110E" stroke-width="2"/>
<path d="M99.6336 132.449C97.8789 131.943 96.4336 131.873 95.2976 132.241C88.7909 134.343 85.9563 138.631 86.7936 145.105" stroke="#A28783" stroke-width="2"/>
<path d="M86.7939 145.105C86.8953 145.143 86.9993 145.177 87.106 145.209" stroke="#7F4124" stroke-width="2"/>
<path d="M170.858 143.297C170.404 137.425 167.674 133.548 162.666 131.665C160.914 131.009 153.546 132.585 157.922 135.465C158.135 135.604 158.356 135.623 158.586 135.521L159.698 135.033" stroke="#937F7E" stroke-width="2"/>
<path d="M159.698 135.033C160.092 135.044 160.29 135.188 160.29 135.465C160.311 140.687 157.69 143.26 152.426 143.185" stroke="#4D1812" stroke-width="2"/>
<path d="M135.641 180.921L120.169 180.713" stroke="#E4845C" stroke-width="2"/>
<path d="M181.361 144.497L180.361 154.105C180.339 154.312 180.371 154.526 180.454 154.721C180.536 154.915 180.665 155.081 180.825 155.198C180.984 155.315 181.167 155.378 181.351 155.378C181.535 155.379 181.711 155.317 181.857 155.201C182.209 154.929 182.463 155.012 182.617 155.449C182.691 155.659 182.835 155.836 183.024 155.951C183.214 156.066 183.438 156.112 183.657 156.081C188.18 155.441 191.529 153.316 193.705 149.705C197.065 144.129 192.913 140.633 188.073 139.001" stroke="#F18C5F" stroke-width="2"/>
<path d="M161.778 142.961C163.378 140.793 164.41 135.969 161.69 134.001C161.578 133.921 161.443 133.88 161.306 133.884C161.168 133.889 161.036 133.938 160.93 134.025L159.698 135.033" stroke="#B38E87" stroke-width="2"/>
<path d="M99.6335 132.449C99.9215 135.201 99.1749 136.772 97.3936 137.161" stroke="#937F7E" stroke-width="2"/>
<path d="M97.3937 137.161C96.727 136.761 96.5057 135.951 96.7297 134.729C96.7777 134.463 96.6657 134.329 96.3937 134.329C95.455 134.335 94.8523 134.759 94.5857 135.601C93.0977 140.345 95.6417 144.305 99.6737 146.449C101.071 147.196 102.492 147.119 103.938 146.217" stroke="#B38E87" stroke-width="2"/>
<path d="M92.1299 147.993L86.7939 145.105" stroke="#D5B094" stroke-width="2"/>
<path d="M107.818 140.873C105.108 144.1 102.38 144.82 99.6337 143.033C99.4044 142.884 99.2231 142.689 99.0898 142.449C98.8551 142.039 98.5244 141.724 98.0978 141.505C97.8684 141.388 97.6951 141.215 97.5777 140.985C96.9377 139.7 96.8764 138.425 97.3938 137.161" stroke="#4D1812" stroke-width="2"/>
<path d="M90.7939 225.297C90.9539 225.932 90.9566 226.583 90.802 227.249" stroke="#ADB292" stroke-width="2"/>
<path d="M90.8018 227.249C90.8444 227.708 90.6711 228.26 90.2817 228.905" stroke="#829B69" stroke-width="2"/>
<path d="M90.2815 228.905C73.4815 222.388 59.2015 212.188 47.4415 198.305C38.0868 187.265 31.3562 174.785 27.2495 160.865" stroke="#478079" stroke-width="2"/>
<path d="M90.2817 228.905L100.554 231.681C100.604 231.696 100.656 231.699 100.708 231.691C100.759 231.683 100.809 231.664 100.852 231.635C100.895 231.606 100.932 231.568 100.959 231.523C100.986 231.479 101.004 231.429 101.01 231.377L101.914 223.953" stroke="#6C7751" stroke-width="2"/>
<path d="M101.914 223.953C102.41 224.215 102.799 224.004 103.082 223.321C103.194 223.06 103.388 222.908 103.666 222.865C104.151 222.791 104.738 222.943 105.426 223.321" stroke="#2A3135" stroke-width="2"/>
<path d="M105.425 223.322L105.281 232.402C105.279 232.521 105.318 232.638 105.393 232.731C105.467 232.825 105.572 232.889 105.689 232.914C120.991 236.199 136.263 236.148 151.505 232.762" stroke="#6C7751" stroke-width="2"/>
<path d="M151.505 232.761L157.561 231.329C157.876 231.255 158.004 231.06 157.945 230.745L156.529 222.633C156.47 222.293 156.298 221.982 156.041 221.75C155.785 221.518 155.458 221.378 155.113 221.353C153.183 221.204 152.132 220.257 151.961 218.513" stroke="#416C63" stroke-width="2"/>
<path d="M151.962 218.513C152.271 217.857 152.749 217.476 153.394 217.369" stroke="#586E60" stroke-width="2"/>
<path d="M153.394 217.369C157.41 218.497 158.426 227.265 158.666 230.473C158.687 230.751 158.836 230.86 159.114 230.801C162.65 229.996 166.159 228.777 169.642 227.145" stroke="#6C7751" stroke-width="2"/>
<path d="M169.642 227.145C192.004 218.601 209.02 203.863 220.69 182.929" stroke="#478079" stroke-width="2"/>
<path d="M126.114 169.969C126.007 170.204 126.074 170.375 126.314 170.481C127.954 171.233 133.162 170.385 134.05 168.769C134.226 168.449 134.132 168.297 133.77 168.313C132.082 168.385 126.882 168.281 126.114 169.969Z" stroke="#881E16" stroke-width="2"/>
<path d="M169.642 227.145C167.378 217.801 164.338 211.369 162.346 204.673C162.255 204.359 162.367 204.167 162.682 204.097L163.298 203.961" stroke="#829B69" stroke-width="2"/>
<path d="M136.154 185.113C133.554 185.753 120.409 187.257 119.417 184.249" stroke="#D9784D" stroke-width="2"/>
<path d="M139.649 186.625L138.377 190.417" stroke="#A66436" stroke-width="2"/>
<path d="M138.378 190.417L137.618 187.649C137.584 187.524 137.521 187.409 137.435 187.313C137.348 187.216 137.24 187.142 137.119 187.095C136.999 187.048 136.869 187.031 136.74 187.044C136.611 187.056 136.487 187.1 136.378 187.169C133.194 189.207 130.298 191.583 127.69 194.297C127.514 194.479 127.335 194.481 127.154 194.305L119.426 186.785C119.207 186.577 119.018 186.345 118.858 186.089L118.114 184.889" stroke="#E9854C" stroke-width="2"/>
<path d="M138.378 190.417C136.53 195.401 131.762 202.041 126.458 203.345C125.279 203.633 124.37 203.537 123.73 203.057C117.916 198.695 115.034 192.831 115.082 185.465" stroke="#AC6C3B" stroke-width="2"/>
<path d="M143.793 186.49C143.633 192.202 142.089 200.962 137.721 204.57C137.519 204.735 137.303 204.751 137.073 204.618C136.327 204.175 135.921 203.5 135.857 202.594C135.854 202.515 135.823 202.439 135.77 202.381C135.717 202.322 135.645 202.285 135.566 202.274C135.488 202.264 135.409 202.281 135.342 202.323C135.275 202.366 135.225 202.43 135.201 202.505L132.897 208.714C132.844 208.856 132.756 208.983 132.641 209.083C132.526 209.183 132.387 209.252 132.239 209.285C132.09 209.317 131.935 209.312 131.789 209.27C131.643 209.227 131.51 209.149 131.401 209.042C129.433 207.058 126.825 205.153 124.457 208.033C121.497 211.649 118.457 204.618 118.017 202.514C117.995 202.411 117.946 202.316 117.874 202.24C117.802 202.163 117.712 202.107 117.611 202.077C117.51 202.048 117.403 202.046 117.302 202.072C117.2 202.098 117.108 202.151 117.033 202.226L115.425 203.833C115.312 203.946 115.175 204.032 115.025 204.087C114.875 204.141 114.716 204.162 114.557 204.148C114.399 204.135 114.245 204.086 114.108 204.007C113.97 203.928 113.852 203.819 113.761 203.69C110.273 198.714 110.113 193.857 110.441 186.609" stroke="#886E33" stroke-width="2"/>
<path d="M153.394 217.369L155.058 205.041C155.069 204.942 155.047 204.842 154.994 204.758C154.942 204.673 154.862 204.609 154.768 204.575C154.674 204.542 154.572 204.541 154.478 204.574C154.384 204.606 154.303 204.669 154.25 204.753C154.01 205.148 153.658 205.199 153.194 204.905C152.986 204.772 152.828 204.593 152.721 204.369C151.095 200.951 149.991 197.108 149.41 192.841C149.383 192.644 149.263 192.54 149.05 192.529C148.879 192.524 148.801 192.607 148.817 192.777L151.321 220.865" stroke="#938951" stroke-width="2"/>
<path d="M151.321 220.865L151.505 232.761" stroke="#7B8653" stroke-width="2"/>
<path d="M105.426 223.321C105.564 217.679 106.172 212.127 107.25 206.665C107.372 206.047 107.343 206.039 107.162 206.641L101.914 223.953" stroke="#644B25" stroke-width="2"/>
<path d="M90.8018 227.249L91.3377 228.097C91.5297 228.396 91.6658 228.372 91.7458 228.025C92.0871 226.633 92.3644 224.535 92.5777 221.729C92.9057 217.425 95.0577 208.401 96.0257 204.881C97.6577 198.972 100.54 193.697 104.674 189.057" stroke="#D1A96A" stroke-width="2"/>
<path d="M151.961 218.513C151.945 219.287 151.732 220.071 151.321 220.865" stroke="#687E63" stroke-width="2"/>
<path d="M162.898 27.8013C161.271 29.1187 159.543 29.5053 157.714 28.9613C157.479 28.892 157.247 28.9 157.018 28.9853L150.618 31.3533C150.341 31.4547 150.202 31.652 150.202 31.9453C150.202 33.4333 149.554 34.3773 148.258 34.7773C144.082 36.0733 140.21 38.4173 136.13 40.1053C135.314 40.4413 134.519 41.1693 133.746 42.2893C133.597 42.5027 133.647 42.6493 133.898 42.7293C134.943 43.06 135.855 43.628 136.634 44.4333C136.666 44.4707 136.682 44.516 136.682 44.5693C136.677 44.6387 136.666 44.708 136.65 44.7773C136.607 44.916 136.658 44.9853 136.802 44.9853C137.994 44.9853 138.514 46.9133 137.762 47.0893L134.594 45.3773C135.474 44.2733 133.034 43.6973 132.29 43.3853C127.111 41.2093 121.442 40.0493 115.282 39.9053C96.9539 39.4813 77.7939 44.7133 64.6979 57.8973C64.4152 58.1853 64.1272 58.6387 63.8339 59.2573C63.2259 60.5453 61.8179 61.3933 61.2259 62.2973C57.8339 67.4813 55.6499 73.148 54.6739 79.2973C53.1859 79.452 52.3912 78.9667 52.2899 77.8413C52.2776 77.7104 52.234 77.5845 52.163 77.4745C52.0919 77.3644 51.9955 77.2734 51.8819 77.2093C50.6872 76.5373 49.6339 76.7133 48.7219 77.7373C48.5459 77.9347 48.3326 78.0787 48.0819 78.1693C47.6979 78.3053 37.3939 81.2093 37.2659 82.6253C37.2499 82.86 37.1299 83.012 36.9059 83.0813C36.2926 83.2787 35.6952 83.2067 35.1139 82.8653C34.8526 82.716 34.6526 82.7747 34.5139 83.0413L34.2499 83.5213C34.0472 83.9053 33.8072 83.9293 33.5299 83.5933L33.0259 82.9773C37.8952 71.772 44.6125 61.7267 53.1779 52.8413C60.6872 45.156 69.3592 38.8013 79.1939 33.7773C105.53 20.2413 134.818 17.6093 162.898 27.8013Z" fill="#AECD9E"/>
<path d="M162.897 27.8015C177.729 33.0068 190.761 41.0709 201.993 51.9935L201.577 52.9455C201.433 53.2922 201.548 53.4655 201.921 53.4655H202.289C202.332 53.4682 202.373 53.4853 202.405 53.5141C202.438 53.5429 202.459 53.5817 202.467 53.6242C202.474 53.6668 202.467 53.7106 202.446 53.7485C202.426 53.7865 202.393 53.8164 202.353 53.8335C201.372 54.1962 200.692 54.1428 200.313 53.6735C200.137 53.4495 199.911 53.3002 199.633 53.2255C198.439 52.9002 197.383 52.3242 196.465 51.4975C196.263 51.3108 196.049 51.3002 195.825 51.4655C194.657 52.3295 194.444 53.4148 195.185 54.7215C195.217 54.7802 195.212 54.8335 195.169 54.8815C195.111 54.9402 195.063 54.9908 195.025 55.0335C195.02 55.0404 195.017 55.0489 195.017 55.0575C195.017 55.0662 195.02 55.0746 195.025 55.0815C195.959 56.4042 196.948 57.6762 197.993 58.8975C198.159 59.0895 198.18 59.2975 198.057 59.5215C197.924 59.7615 197.852 60.0362 197.841 60.3455C194.247 56.0095 189.868 52.7802 184.705 50.6575C174.999 45.7562 165.367 45.8308 155.809 50.8815C152.54 52.8975 149.791 55.3295 147.561 58.1775C147.364 58.4335 147.191 58.4175 147.041 58.1295C144.727 53.7082 141.633 50.0282 137.761 47.0895C138.513 46.9135 137.993 44.9855 136.801 44.9855C136.657 44.9855 136.607 44.9162 136.649 44.7775C136.665 44.7082 136.676 44.6388 136.681 44.5695C136.681 44.5162 136.665 44.4708 136.633 44.4335C135.855 43.6282 134.943 43.0602 133.897 42.7295C133.647 42.6495 133.596 42.5028 133.745 42.2895C134.519 41.1695 135.313 40.4415 136.129 40.1055C140.209 38.4175 144.081 36.0735 148.257 34.7775C149.553 34.3775 150.201 33.4335 150.201 31.9455C150.201 31.6522 150.34 31.4548 150.617 31.3535L157.017 28.9855C157.247 28.9002 157.479 28.8922 157.713 28.9615C159.543 29.5055 161.271 29.1188 162.897 27.8015Z" fill="#A5CBA5"/>
<path d="M134.594 45.3773L129.522 43.4653C107.098 36.9453 76.8577 45.6413 62.3857 64.1613C58.6631 69.4306 56.2737 75.2866 55.2177 81.7293C54.1084 82.4066 53.9271 81.596 54.6737 79.2973C55.6497 73.148 57.8337 67.4813 61.2257 62.2973C61.8177 61.3933 63.2257 60.5453 63.8337 59.2573C64.1271 58.6386 64.4151 58.1853 64.6977 57.8973C77.7937 44.7133 96.9537 39.4813 115.282 39.9053C121.442 40.0493 127.111 41.2093 132.29 43.3853C133.034 43.6973 135.474 44.2733 134.594 45.3773Z" fill="#F7CD97"/>
<path d="M129.522 43.4654C128.258 44.9374 131.41 45.2974 132.33 45.7934C132.175 46.1294 132.204 46.5107 132.418 46.9374C132.471 47.0435 132.489 47.1642 132.469 47.2821C132.449 47.4 132.392 47.5091 132.306 47.5934C131.671 48.2227 130.916 48.444 130.042 48.2574C129.834 48.2147 129.642 48.252 129.466 48.3694C128.452 49.0307 127.324 49.388 126.082 49.4414C125.922 49.4489 125.769 49.5076 125.647 49.6086C125.524 49.7097 125.438 49.8475 125.402 50.0014L125.194 50.8654C125.163 50.9932 125.095 51.1091 125 51.1987C124.905 51.2883 124.786 51.3476 124.658 51.3694C112.834 53.268 101.602 56.9214 90.9616 62.3294C88.1696 63.7454 85.3295 65.8974 82.4655 67.6334C82.383 67.6863 82.2849 67.7097 82.1873 67.6995C82.0898 67.6893 81.9986 67.6462 81.9288 67.5773C81.859 67.5084 81.8146 67.4178 81.8032 67.3204C81.7917 67.223 81.8136 67.1246 81.8655 67.0414L83.1055 64.8894C83.1486 64.8202 83.1663 64.7383 83.1556 64.6575C83.145 64.5767 83.1067 64.5022 83.0472 64.4465C82.9878 64.3908 82.9109 64.3575 82.8296 64.3522C82.7483 64.3469 82.6677 64.3699 82.6015 64.4174C78.4495 67.2494 76.1775 70.0094 73.9375 74.4334C72.9935 76.2894 71.5856 77.764 69.7136 78.8574C69.6615 78.8881 69.6034 78.9074 69.5431 78.9139C69.4828 78.9204 69.4216 78.9141 69.3636 78.8952C69.3055 78.8764 69.2518 78.8454 69.206 78.8045C69.1602 78.7635 69.1232 78.7134 69.0975 78.6574L67.8175 75.7534C67.7108 75.5027 67.7189 75.2574 67.8415 75.0174C70.1242 70.692 73.1802 67.0174 77.0095 63.9934C77.1166 63.9088 77.1898 63.7884 77.2161 63.6536C77.2425 63.5189 77.2203 63.3784 77.1535 63.2574C76.9935 62.9747 76.7508 62.9534 76.4255 63.1934C70.5695 67.5614 66.5109 73.236 64.2495 80.2174C64.1749 80.452 64.0229 80.6227 63.7935 80.7294L60.6975 82.1054C60.5429 82.173 60.3685 82.1792 60.2105 82.1226C60.0526 82.066 59.9233 81.9509 59.8495 81.8014C59.3162 80.724 58.4709 80.028 57.3136 79.7134C56.9989 79.628 56.8762 79.4254 56.9455 79.1054C57.9429 74.4814 59.7215 70.1934 62.2815 66.2414C62.5855 65.7774 62.6202 65.084 62.3855 64.1614C76.8575 45.6414 107.098 36.9454 129.522 43.4654ZM117.314 44.8654C117.429 44.7734 117.513 44.6477 117.553 44.5057C117.594 44.3637 117.588 44.2124 117.538 44.0727C117.488 43.9331 117.396 43.8119 117.274 43.726C117.152 43.6402 117.006 43.5938 116.858 43.5934C106.642 43.6414 95.2895 45.6654 88.2975 53.3934C88.2769 53.4193 88.2647 53.4509 88.2628 53.484C88.2609 53.5171 88.2693 53.5499 88.2868 53.578C88.3044 53.6061 88.3302 53.6281 88.3608 53.6409C88.3914 53.6536 88.4252 53.6566 88.4575 53.6494C97.2149 51.244 105.938 48.756 114.626 46.1854C115.735 45.86 116.631 45.42 117.314 44.8654Z" fill="#4C2524"/>
<path d="M129.521 43.4655L134.593 45.3775L137.761 47.0895C141.633 50.0281 144.727 53.7081 147.041 58.1295C147.191 58.4175 147.364 58.4335 147.561 58.1775C149.791 55.3295 152.54 52.8975 155.809 50.8815C156.06 53.0628 154.996 54.9428 152.617 56.5215C152.38 56.6818 152.207 56.9199 152.129 57.1935C151.863 58.1855 152.105 58.8441 152.857 59.1695C152.963 59.2145 153.058 59.282 153.137 59.3675C153.215 59.4529 153.276 59.5544 153.313 59.6655L153.945 61.5455C153.982 61.6568 154.06 61.7501 154.164 61.8064C154.268 61.8628 154.39 61.8782 154.505 61.8495C158.817 60.8575 162.961 60.8335 167.481 60.4735C171.625 60.1535 176.033 62.2015 179.905 64.2975C180.361 64.5455 181.201 64.4254 181.641 64.1374C181.828 64.0201 182.012 64.0201 182.193 64.1374C183.553 65.0388 184.689 64.8815 185.601 63.6655C185.793 63.4095 185.889 63.1215 185.889 62.8015V61.9455C185.889 61.6628 186.031 61.5375 186.313 61.5695C186.809 61.6335 187.289 61.7641 187.753 61.9615C191.225 63.4415 191.289 58.4575 193.129 56.7215C198.025 61.2975 201.351 66.4788 203.105 72.2655C204.929 78.2708 205.532 84.7401 204.913 91.6734C204.892 91.8548 204.809 92.0014 204.665 92.1134L204.217 92.4415C203.945 92.6388 203.823 92.9055 203.849 93.2415C204.132 96.9801 203.5 100.548 201.953 103.945C201.799 104.281 201.679 104.268 201.593 103.905L201.417 103.177C201.38 103.012 201.279 102.919 201.113 102.897C200.132 102.769 199.295 102.324 198.601 101.561C198.521 101.473 198.459 101.369 198.421 101.255C198.382 101.14 198.367 101.019 198.377 100.897C198.564 98.4814 198.489 96.0681 198.153 93.6575C198.095 93.2468 197.967 93.2228 197.769 93.5854C196.257 96.3374 197.137 99.0815 196.153 101.705C196.063 101.961 195.884 102.057 195.617 101.993C194.956 101.828 194.308 101.94 193.673 102.329C193.46 102.463 193.233 102.484 192.993 102.393L190.193 101.305C189.815 101.161 189.58 101.287 189.489 101.681C189.468 101.793 189.401 101.884 189.289 101.953C188.964 102.167 188.809 102.079 188.825 101.689L188.873 100.041C188.879 99.8388 188.783 99.7135 188.585 99.6655C188.009 99.5374 187.761 99.2708 187.841 98.8655C187.889 98.615 187.861 98.3562 187.761 98.1215C186.727 95.6308 185.527 93.2281 184.161 90.9134C183.209 89.2894 179.801 85.3455 178.241 84.4175C169.849 79.4335 161.417 77.0734 152.689 74.0254C149.793 73.0094 145.385 70.8335 145.033 67.3535C145.012 67.1561 144.9 67.0628 144.697 67.0735C142.767 67.1908 141.535 67.5588 141.001 68.1775C128.673 82.5055 109.113 81.4655 93.1694 88.8575C86.7134 91.8495 79.1215 91.3694 75.2975 98.8094C74.0975 101.145 73.2175 107.185 73.4095 109.825C73.7455 114.524 73.4708 119.204 72.5854 123.865C72.5374 124.127 72.3881 124.303 72.1375 124.393C70.0815 125.161 70.4575 127.481 67.5615 126.801C67.3055 126.743 67.0521 126.756 66.8015 126.841C65.9108 127.151 65.1561 126.911 64.5375 126.121C64.3615 125.892 64.2841 125.633 64.3055 125.345C64.3695 124.492 64.2094 123.551 63.8254 122.521C61.2708 115.737 58.8574 108.073 56.5854 99.5295C58.3721 100.132 59.0068 98.8415 58.4895 95.6575C58.4361 95.3161 58.5775 95.1134 58.9135 95.0494L61.6734 94.5055C61.7291 94.4937 61.7805 94.4683 61.8226 94.4318C61.8646 94.3954 61.896 94.349 61.9135 94.2974L62.7535 92.0575C62.8548 91.7801 63.0388 91.7001 63.3055 91.8175C66.4575 93.2095 67.6174 90.7614 69.3214 88.3374C70.1588 87.1374 70.6308 85.7721 70.7375 84.2415C70.7534 84.0085 70.8102 83.7784 70.9055 83.5614L72.1135 80.8734C72.2201 80.6388 72.3748 80.4468 72.5774 80.2974C74.1614 79.1614 76.8815 74.3295 78.6095 74.9295C78.7449 74.9768 78.8661 75.0577 78.9618 75.1647C79.0574 75.2717 79.1244 75.4011 79.1563 75.541C79.1883 75.6809 79.1843 75.8266 79.1446 75.9645C79.1049 76.1024 79.0309 76.228 78.9294 76.3295C77.0414 78.2175 75.5695 80.4655 75.3055 83.0494C75.1855 84.2734 73.7455 84.4415 73.8095 85.9695C73.8111 86.0309 73.8293 86.0905 73.8625 86.1422C73.8956 86.194 73.9423 86.2359 73.9978 86.2636C74.0533 86.2913 74.1155 86.3039 74.178 86.3C74.2406 86.2961 74.3011 86.2759 74.3535 86.2415C87.5055 77.3135 101.633 72.5695 118.241 66.0015C121.793 64.5988 125.423 63.4254 129.129 62.4815C131.329 61.9214 133.609 60.8095 136.081 60.3775C136.364 60.3241 136.572 60.1721 136.705 59.9215C137.313 58.7855 138.244 58.0815 139.497 57.8095C139.666 57.7742 139.819 57.6854 139.933 57.5564C140.047 57.4273 140.117 57.2649 140.131 57.0932C140.145 56.9215 140.104 56.7497 140.013 56.6035C139.922 56.4572 139.786 56.3443 139.625 56.2815C136.052 54.8841 132.319 54.2761 128.425 54.4575C128.246 54.4684 128.069 54.4171 127.923 54.3123C127.778 54.2074 127.673 54.0552 127.626 53.8812C127.579 53.7071 127.593 53.5216 127.666 53.3557C127.739 53.1898 127.866 53.0535 128.025 52.9695C130.849 51.4895 135.857 54.0895 138.449 53.0495C138.771 52.9204 139.057 52.7084 139.275 52.437C139.492 52.1657 139.633 51.8456 139.682 51.5124C139.731 51.1791 139.686 50.8458 139.552 50.5494C139.417 50.253 139.199 50.0052 138.921 49.8335L132.329 45.7935C131.409 45.2975 128.257 44.9375 129.521 43.4655Z" fill="#2E1319"/>
<path d="M117.314 44.8654C116.631 45.42 115.735 45.86 114.626 46.1854C105.938 48.756 97.215 51.2441 88.4577 53.6494C88.4254 53.6566 88.3915 53.6537 88.361 53.6409C88.3304 53.6281 88.3045 53.6062 88.287 53.5781C88.2694 53.55 88.261 53.5171 88.263 53.484C88.2649 53.4509 88.277 53.4193 88.2977 53.3934C95.2897 45.6654 106.642 43.6414 116.858 43.5934C117.007 43.5938 117.152 43.6402 117.274 43.7261C117.396 43.8119 117.488 43.9331 117.538 44.0728C117.589 44.2124 117.594 44.3637 117.554 44.5057C117.513 44.6477 117.429 44.7734 117.314 44.8654Z" fill="#F7CD97"/>
<path d="M132.329 45.7933L138.921 49.8333C139.199 50.0051 139.417 50.2529 139.551 50.5493C139.686 50.8457 139.731 51.179 139.682 51.5122C139.633 51.8455 139.492 52.1656 139.274 52.4369C139.057 52.7083 138.771 52.9203 138.449 53.0493C135.857 54.0893 130.849 51.4893 128.025 52.9693C127.865 53.0534 127.739 53.1897 127.666 53.3556C127.593 53.5215 127.579 53.707 127.626 53.881C127.673 54.0551 127.777 54.2073 127.923 54.3122C128.068 54.417 128.246 54.4683 128.425 54.4573C132.319 54.276 136.052 54.884 139.625 56.2813C139.786 56.3442 139.922 56.4571 140.013 56.6033C140.104 56.7496 140.145 56.9213 140.131 57.093C140.116 57.2647 140.047 57.4272 139.933 57.5563C139.819 57.6853 139.666 57.7741 139.497 57.8093C138.244 58.0813 137.313 58.7853 136.705 59.9213C136.572 60.172 136.364 60.324 136.081 60.3773C133.609 60.8093 131.329 61.9213 129.129 62.4813C125.423 63.4253 121.793 64.5987 118.241 66.0013C101.633 72.5693 87.5054 77.3133 74.3534 86.2413C74.301 86.2758 74.2405 86.296 74.1779 86.2999C74.1154 86.3038 74.0532 86.2912 73.9977 86.2635C73.9422 86.2357 73.8955 86.1938 73.8624 86.1421C73.8292 86.0904 73.811 86.0308 73.8094 85.9693C73.7454 84.4413 75.1854 84.2733 75.3054 83.0493C75.5694 80.4653 77.0413 78.2173 78.9293 76.3293C79.0308 76.2278 79.1048 76.1023 79.1445 75.9644C79.1842 75.8265 79.1882 75.6808 79.1562 75.5409C79.1243 75.401 79.0573 75.2715 78.9617 75.1646C78.866 75.0576 78.7448 74.9767 78.6094 74.9293C76.8814 74.3293 74.1613 79.1613 72.5773 80.2973C72.3747 80.4467 72.22 80.6387 72.1134 80.8733L70.9054 83.5613C70.8101 83.7783 70.7533 84.0084 70.7374 84.2413C70.6307 85.772 70.1587 87.1373 69.3213 88.3373C67.6173 90.7613 66.4574 93.2093 63.3054 91.8173C63.0387 91.7 62.8547 91.78 62.7534 92.0573L61.9134 94.2973C61.8959 94.3489 61.8645 94.3952 61.8225 94.4317C61.7804 94.4682 61.729 94.4936 61.6733 94.5053L58.9134 95.0493C58.5774 95.1133 58.436 95.316 58.4894 95.6573C59.0067 98.8413 58.372 100.132 56.5854 99.5293C56.004 94.1587 55.8387 88.988 56.0894 84.0173C56.1107 83.676 55.9614 83.5667 55.6414 83.6893C55.3534 83.796 55.0307 84.212 54.6733 84.9373L55.2173 81.7293C56.2733 75.2867 58.6627 69.4307 62.3854 64.1613C62.62 65.084 62.5853 65.7773 62.2813 66.2413C59.7213 70.1933 57.9427 74.4813 56.9454 79.1053C56.876 79.4253 56.9987 79.628 57.3134 79.7133C58.4707 80.028 59.316 80.724 59.8494 81.8013C59.9231 81.9509 60.0524 82.0659 60.2104 82.1226C60.3683 82.1792 60.5427 82.173 60.6974 82.1053L63.7934 80.7293C64.0227 80.6227 64.1747 80.452 64.2494 80.2173C66.5107 73.236 70.5693 67.5613 76.4253 63.1933C76.7507 62.9533 76.9934 62.9747 77.1534 63.2573C77.2201 63.3784 77.2423 63.5188 77.216 63.6536C77.1896 63.7884 77.1164 63.9088 77.0094 63.9933C73.18 67.0173 70.124 70.692 67.8414 75.0173C67.7187 75.2573 67.7107 75.5027 67.8173 75.7533L69.0974 78.6573C69.123 78.7134 69.16 78.7635 69.2058 78.8044C69.2516 78.8454 69.3053 78.8763 69.3634 78.8952C69.4214 78.914 69.4826 78.9204 69.5429 78.9139C69.6032 78.9074 69.6613 78.8881 69.7134 78.8573C71.5854 77.764 72.9934 76.2893 73.9374 74.4333C76.1774 70.0093 78.4494 67.2493 82.6014 64.4173C82.6676 64.3699 82.7482 64.3468 82.8294 64.3521C82.9107 64.3575 82.9876 64.3908 83.0471 64.4465C83.1065 64.5021 83.1448 64.5767 83.1555 64.6575C83.1661 64.7382 83.1484 64.8202 83.1054 64.8893L81.8653 67.0413C81.8135 67.1246 81.7915 67.223 81.803 67.3204C81.8145 67.4178 81.8588 67.5084 81.9286 67.5773C81.9984 67.6462 82.0896 67.6892 82.1872 67.6994C82.2847 67.7096 82.3828 67.6863 82.4653 67.6333C85.3293 65.8973 88.1694 63.7453 90.9614 62.3293C101.601 56.9213 112.833 53.268 124.657 51.3693C124.786 51.3476 124.905 51.2883 125 51.1987C125.095 51.1091 125.163 50.9932 125.193 50.8653L125.401 50.0013C125.438 49.8475 125.524 49.7096 125.646 49.6086C125.769 49.5076 125.922 49.4489 126.081 49.4413C127.324 49.388 128.452 49.0307 129.465 48.3693C129.641 48.252 129.833 48.2147 130.041 48.2573C130.916 48.444 131.671 48.2227 132.305 47.5933C132.391 47.509 132.449 47.4 132.469 47.2821C132.489 47.1642 132.471 47.0434 132.417 46.9373C132.204 46.5107 132.175 46.1293 132.329 45.7933Z" fill="#3E1D1F"/>
<path d="M184.706 50.6576L193.13 56.7216C191.29 58.4576 191.226 63.4416 187.754 61.9616C187.29 61.7643 186.81 61.6336 186.314 61.5696C186.031 61.5376 185.89 61.6629 185.89 61.9456V62.8016C185.89 63.1216 185.794 63.4096 185.602 63.6656C184.69 64.8816 183.554 65.0389 182.194 64.1376C182.012 64.0202 181.828 64.0202 181.642 64.1376C181.202 64.4256 180.362 64.5456 179.906 64.2976C176.034 62.2016 171.626 60.1536 167.482 60.4736C162.962 60.8336 158.818 60.8576 154.506 61.8496C154.39 61.8783 154.268 61.863 154.164 61.8066C154.06 61.7502 153.982 61.6569 153.946 61.5456L153.314 59.6656C153.276 59.5546 153.215 59.453 153.137 59.3676C153.058 59.2821 152.963 59.2147 152.858 59.1696C152.106 58.8442 151.863 58.1856 152.13 57.1936C152.207 56.92 152.38 56.6819 152.618 56.5216C154.996 54.9429 156.06 53.0629 155.81 50.8816C165.367 45.8309 174.999 45.7563 184.706 50.6576Z" fill="#4C2524"/>
<path d="M184.705 50.6575C189.868 52.7801 194.247 56.0095 197.841 60.3455C199.777 62.5641 201.407 65.0841 202.729 67.9055C211.153 87.7055 204.521 108.737 195.089 126.601C194.956 126.852 195.025 127.025 195.297 127.121C201.047 129.18 205.489 132.913 208.625 138.321C216.713 151.305 218.441 167.497 211.769 181.569C201.665 199.633 183.401 206.361 163.297 203.961L161.993 203.841C161.7 203.815 161.495 203.665 161.377 203.393C157.873 195.335 152.012 189.7 143.793 186.489L141.393 186.073C141.105 186.025 140.881 186.121 140.721 186.361C140.364 186.9 140.007 186.988 139.649 186.625C140.569 185.097 137.481 185.249 136.153 185.113C135.177 183.935 135.007 182.537 135.641 180.921C153.273 179.545 172.353 173.241 180.825 156.097C180.996 155.745 181.252 155.665 181.593 155.857L183.409 156.857C183.665 157.001 183.935 157.105 184.217 157.169C192.308 158.988 198.505 156.916 202.809 150.953C206.969 145.185 206.889 138.969 202.049 133.705C199.841 131.313 195.153 128.649 191.961 130.257C189.393 131.553 188.193 136.449 188.073 139.001C188.073 141.028 188.327 142.988 188.833 144.881C189.26 146.455 188.74 146.983 187.273 146.465C187.054 146.387 186.86 146.252 186.713 146.073C184.927 143.892 183.572 141.127 182.649 137.777L182.345 129.473C182.921 116.78 182.913 107.647 182.321 102.073C181.537 94.7375 176.617 91.3375 169.721 88.7535C159.953 85.0895 151.537 81.5535 144.089 73.9535C143.887 73.7508 143.695 73.7561 143.513 73.9695C134.657 84.3455 118.521 88.0895 105.057 90.2255C94.9027 91.9908 88.3773 93.3295 85.4813 94.2415C77.6333 96.7215 75.2733 103.297 75.2733 110.865C75.2733 117.863 75.284 124.844 75.3054 131.809C74.9054 131.905 74.7293 131.793 74.7773 131.473C70.5 129.255 66.5694 129.212 62.9854 131.345C55.5214 134.217 52.4973 141.497 55.3693 149.121C60.548 157.02 67.7694 159.153 77.0334 155.521C76.8414 155.217 77.0174 155.068 77.5614 155.073C82.6654 169.673 97.3934 176.881 111.897 179.449L120.169 180.713C120.191 182.004 119.94 183.183 119.417 184.249C119.06 184.66 118.625 184.873 118.113 184.889L115.081 185.465L110.441 186.609L104.673 189.057C94.3533 193.801 91.3534 215.289 90.7934 225.297C90.4014 223.513 90.3933 221.673 89.4813 220.057C80.4333 204.041 67.0733 191.033 54.2653 179.089C49.1027 174.268 44.988 168.86 41.9213 162.865C39.6707 157.953 38.084 152.812 37.1614 147.441L37.0894 146.097C37.212 145.948 37.364 145.871 37.5454 145.865C37.6578 145.861 37.7686 145.895 37.8589 145.964C37.9493 146.033 38.0138 146.131 38.0414 146.241C39.3374 151.847 41.2947 157.196 43.9134 162.289C44.8814 164.177 46.4574 164.657 48.3854 164.137C48.6894 164.057 48.836 163.86 48.8253 163.545C48.7533 161.033 48.2174 155.441 51.0414 154.817C51.0973 154.806 51.1504 154.784 51.1976 154.752C51.2448 154.719 51.2851 154.678 51.3164 154.629C51.3476 154.581 51.3691 154.527 51.3795 154.47C51.39 154.413 51.3893 154.354 51.3773 154.297C50.6653 150.865 49.2253 143.049 52.2173 141.169C52.42 141.047 52.5587 140.873 52.6333 140.649C54.052 136.596 56.316 133.105 59.4253 130.177C59.644 129.975 59.7293 129.727 59.6813 129.433C59.404 127.737 59.8894 126.284 61.1374 125.073C61.2269 124.986 61.2958 124.881 61.3387 124.764C61.3817 124.648 61.3976 124.524 61.3854 124.401C61.0387 120.401 60.1614 116.532 58.7534 112.793C58.6734 112.585 58.524 112.465 58.3054 112.433L55.8173 112.065L57.6173 111.377C57.7443 111.327 57.8544 111.241 57.935 111.131C58.0157 111.021 58.0636 110.89 58.0733 110.753C58.0947 110.311 57.924 109.881 57.5614 109.465C55.5454 101.113 53.8653 94.5135 54.6733 84.9375C55.0307 84.2121 55.3534 83.7961 55.6414 83.6895C55.9614 83.5668 56.1107 83.6761 56.0894 84.0175C55.8387 88.9881 56.004 94.1588 56.5854 99.5295C58.8574 108.073 61.2707 115.737 63.8253 122.521C64.2093 123.551 64.3694 124.492 64.3054 125.345C64.284 125.633 64.3614 125.892 64.5374 126.121C65.156 126.911 65.9107 127.151 66.8014 126.841C67.052 126.756 67.3054 126.743 67.5614 126.801C70.4574 127.481 70.0814 125.161 72.1374 124.393C72.388 124.303 72.5374 124.127 72.5854 123.865C73.4707 119.204 73.7454 114.524 73.4094 109.825C73.2174 107.185 74.0974 101.145 75.2974 98.8095C79.1214 91.3695 86.7133 91.8495 93.1693 88.8575C109.113 81.4655 128.673 82.5055 141.001 68.1775C141.535 67.5588 142.767 67.1908 144.697 67.0735C144.9 67.0628 145.012 67.1561 145.033 67.3535C145.385 70.8335 149.793 73.0095 152.689 74.0255C161.417 77.0735 169.849 79.4335 178.241 84.4175C179.801 85.3455 183.209 89.2895 184.161 90.9135C185.527 93.2281 186.727 95.6308 187.761 98.1215C187.861 98.3562 187.888 98.615 187.841 98.8655C187.761 99.2708 188.009 99.5375 188.585 99.6655C188.783 99.7135 188.879 99.8388 188.873 100.041L188.825 101.689C188.809 102.079 188.964 102.167 189.289 101.953C189.401 101.884 189.468 101.793 189.489 101.681C189.58 101.287 189.815 101.161 190.193 101.305L192.993 102.393C193.233 102.484 193.46 102.463 193.673 102.329C194.308 101.94 194.956 101.828 195.617 101.993C195.884 102.057 196.063 101.961 196.153 101.705C197.137 99.0815 196.257 96.3375 197.769 93.5855C197.967 93.2228 198.095 93.2468 198.153 93.6575C198.489 96.0681 198.564 98.4815 198.377 100.897C198.367 101.019 198.382 101.14 198.421 101.255C198.459 101.369 198.521 101.473 198.601 101.561C199.295 102.324 200.132 102.769 201.113 102.897C201.279 102.919 201.38 103.012 201.417 103.177L201.593 103.905C201.679 104.268 201.799 104.281 201.953 103.945C203.5 100.548 204.132 96.9801 203.849 93.2415C203.823 92.9055 203.945 92.6388 204.217 92.4415L204.665 92.1135C204.809 92.0015 204.892 91.8548 204.913 91.6735C205.532 84.7401 204.929 78.2708 203.105 72.2655C201.351 66.4788 198.025 61.2975 193.129 56.7215L184.705 50.6575Z" fill="#1A060F"/>
<path d="M201.994 51.9934C226.794 76.5854 236.522 109.041 233.122 143.481C232.38 150.921 230.842 158.175 228.506 165.241C226.415 171.337 223.81 177.233 220.69 182.929C220.05 182.951 219.532 182.716 219.138 182.225C218.978 182.028 218.78 181.972 218.546 182.057L217.978 182.273C217.919 182.294 217.857 182.3 217.795 182.291C217.734 182.283 217.676 182.259 217.626 182.223C217.575 182.187 217.534 182.139 217.507 182.084C217.479 182.029 217.465 181.967 217.466 181.905C217.498 180.711 217.212 179.639 216.61 178.689C216.45 178.449 216.252 178.412 216.018 178.577L213.578 180.321C213.418 180.433 213.287 180.577 213.186 180.753C212.892 181.265 212.42 181.537 211.77 181.569C218.442 167.497 216.714 151.305 208.626 138.321C208.999 138.012 209.463 137.911 210.018 138.017C210.3 138.071 210.511 137.975 210.65 137.729C224.09 113.937 223.41 87.6014 206.618 65.5374C206.534 65.4288 206.419 65.349 206.288 65.3094C206.156 65.2697 206.016 65.2721 205.886 65.3162C205.757 65.3603 205.644 65.444 205.564 65.5554C205.485 65.6668 205.442 65.8003 205.442 65.9374C205.442 66.4814 205.178 66.7294 204.65 66.6814C204.383 66.66 204.18 66.764 204.042 66.9934C203.695 67.548 203.258 67.852 202.73 67.9054C201.407 65.084 199.778 62.564 197.842 60.3454C197.852 60.036 197.924 59.7614 198.058 59.5214C198.18 59.2974 198.159 59.0894 197.994 58.8974C196.948 57.676 195.959 56.404 195.026 55.0814C195.02 55.0744 195.018 55.066 195.018 55.0574C195.018 55.0487 195.02 55.0403 195.026 55.0334C195.063 54.9907 195.111 54.94 195.17 54.8814C195.212 54.8334 195.218 54.78 195.186 54.7214C194.444 53.4147 194.658 52.3294 195.826 51.4654C196.05 51.3 196.263 51.3107 196.466 51.4974C197.383 52.324 198.439 52.9 199.634 53.2254C199.911 53.3 200.138 53.4494 200.314 53.6734C200.692 54.1427 201.372 54.196 202.354 53.8334C202.393 53.8163 202.426 53.7864 202.447 53.7484C202.467 53.7104 202.474 53.6666 202.467 53.6241C202.46 53.5816 202.438 53.5428 202.406 53.514C202.374 53.4852 202.333 53.468 202.29 53.4654H201.922C201.548 53.4654 201.434 53.292 201.578 52.9454L201.994 51.9934Z" fill="#7EBA98"/>
<path d="M208.626 138.321C205.49 132.913 201.047 129.18 195.298 127.121C195.026 127.025 194.956 126.852 195.09 126.601C204.522 108.737 211.154 87.7053 202.73 67.9053C203.258 67.852 203.695 67.548 204.042 66.9933C204.18 66.764 204.383 66.66 204.65 66.6813C205.178 66.7293 205.442 66.4813 205.442 65.9373C205.442 65.8003 205.485 65.6667 205.564 65.5553C205.644 65.4439 205.757 65.3603 205.886 65.3162C206.016 65.2721 206.156 65.2697 206.288 65.3093C206.419 65.349 206.534 65.4287 206.618 65.5373C223.41 87.6013 224.09 113.937 210.65 137.729C210.511 137.975 210.3 138.071 210.018 138.017C209.463 137.911 208.999 138.012 208.626 138.321Z" fill="#5DA491"/>
<path d="M182.346 129.474L182.298 127.418C182.292 127.204 182.188 127.084 181.986 127.058L181.73 127.026C181.468 126.988 181.332 126.839 181.322 126.578C181.274 125.498 180.698 124.674 180.706 123.658C180.727 117.812 180.644 111.962 180.458 106.106C180.226 98.8095 178.858 93.6815 171.818 91.2975C166.98 89.6602 162.799 88.1162 159.274 86.6655C153.858 84.4335 148.738 80.8175 143.594 77.5855C143.373 77.447 143.106 77.4011 142.85 77.4575C141.788 77.6922 141.111 78.3055 140.818 79.2975C140.738 79.5749 140.578 79.7962 140.338 79.9615C130.418 86.9135 117.618 90.4335 105.37 91.9855C105.167 92.0122 105.066 91.9215 105.066 91.7135L105.058 90.2255C118.522 88.0895 134.658 84.3455 143.514 73.9695C143.695 73.7562 143.887 73.7509 144.09 73.9535C151.538 81.5535 159.954 85.0895 169.722 88.7535C176.618 91.3375 181.538 94.7375 182.322 102.074C182.914 107.647 182.922 116.78 182.346 129.474Z" fill="#F89564"/>
<path d="M54.6737 79.2976C53.9271 81.5962 54.1084 82.4069 55.2177 81.7296L54.6737 84.9376C53.8657 94.5136 55.5458 101.114 57.5618 109.466C50.1058 112.026 44.5324 116.722 40.8417 123.554C36.1697 132.21 35.6497 137.954 36.2417 148.058C36.2471 148.164 36.3031 148.223 36.4098 148.234L36.6098 148.266C36.8658 148.298 37.0177 148.186 37.0657 147.93L37.1618 147.442C38.0844 152.812 39.6711 157.954 41.9217 162.866C41.8044 162.988 41.6551 163.063 41.4737 163.09C41.1964 163.122 40.9911 163.012 40.8578 162.762C38.7511 158.73 37.3217 154.466 36.5697 149.97C36.5484 149.842 36.4738 149.778 36.3458 149.778C36.0258 149.783 35.7164 149.655 35.4177 149.394C31.7697 146.194 31.4017 151.682 28.4257 151.706C28.1697 151.706 27.9697 151.815 27.8257 152.034L26.7777 153.594C26.6177 153.834 26.4524 153.836 26.2817 153.602C26.0097 153.234 25.6818 152.988 25.2978 152.866C20.9884 129.298 23.3191 106.375 32.2897 84.0976C32.5457 84.0122 32.7911 83.6389 33.0257 82.9776L33.5297 83.5936C33.8071 83.9296 34.0471 83.9056 34.2498 83.5216L34.5138 83.0416C34.6524 82.7749 34.8524 82.7162 35.1138 82.8656C35.6951 83.2069 36.2924 83.2789 36.9058 83.0816C37.1298 83.0123 37.2497 82.8602 37.2657 82.6256C37.3937 81.2096 47.6977 78.3056 48.0817 78.1696C48.3324 78.0789 48.5457 77.9349 48.7217 77.7376C49.6337 76.7136 50.6871 76.5376 51.8817 77.2096C51.9953 77.2737 52.0918 77.3647 52.1628 77.4747C52.2339 77.5848 52.2774 77.7106 52.2897 77.8416C52.3911 78.9669 53.1857 79.4522 54.6737 79.2976ZM37.4596 105.772C37.4401 105.637 37.3854 105.508 37.2986 105.393C37.2117 105.278 37.0945 105.179 36.9535 105.102C36.8125 105.025 36.6506 104.971 36.477 104.943C36.3033 104.915 36.1213 104.914 35.9414 104.94C35.5781 104.993 35.2453 105.151 35.0163 105.381C34.7872 105.611 34.6806 105.894 34.7199 106.167C34.7394 106.302 34.7941 106.431 34.8809 106.546C34.9677 106.661 35.085 106.76 35.226 106.837C35.3669 106.914 35.5289 106.968 35.7025 106.996C35.8762 107.024 36.0582 107.025 36.2381 106.999C36.6014 106.947 36.9342 106.788 37.1632 106.558C37.3923 106.328 37.4989 106.045 37.4596 105.772Z" fill="#91C299"/>
<path d="M182.345 129.474L182.649 137.778C181.609 139.644 181.18 141.884 181.361 144.498C181.009 144.818 180.681 144.996 180.377 145.034L180.457 144.626C180.521 144.332 180.404 144.159 180.105 144.106C178.367 143.78 176.649 143.415 174.953 143.01C174.802 142.974 174.66 142.906 174.538 142.81C174.415 142.714 174.316 142.592 174.246 142.453C174.175 142.315 174.136 142.162 174.132 142.007C174.127 141.851 174.156 141.696 174.217 141.554C174.377 141.18 174.287 141.023 173.945 141.082C173.705 141.13 173.569 141.274 173.537 141.514C173.324 143.055 172.463 144.055 170.953 144.514C170.735 144.076 170.703 143.671 170.857 143.298C171.817 142.62 172.46 141.772 172.785 140.754C172.871 140.492 172.871 140.234 172.785 139.978C171.143 134.778 167.599 131.356 162.153 129.714C153.145 126.538 145.457 134.57 149.721 143.442L148.809 143.858C148.681 143.543 148.548 143.295 148.409 143.114C148.365 143.049 148.296 143.004 148.219 142.99C148.142 142.976 148.062 142.993 147.997 143.038C147.933 143.082 147.888 143.151 147.874 143.228C147.86 143.305 147.877 143.385 147.921 143.45C149.164 145.418 150.783 146.986 152.777 148.154C153.241 148.426 153.204 148.583 152.665 148.626C151.057 148.754 150.585 146.554 149.081 146.266C148.831 146.218 148.601 146.119 148.393 145.97L145.961 144.202C145.759 144.052 145.532 144.012 145.281 144.082C144.193 144.396 143.423 144.039 142.969 143.01C142.919 142.89 142.829 142.793 142.714 142.734C142.6 142.674 142.468 142.657 142.341 142.684C142.214 142.712 142.1 142.782 142.018 142.883C141.936 142.985 141.89 143.111 141.889 143.242V144.466C141.889 144.796 141.772 144.847 141.537 144.618L141.201 144.274C141.01 144.087 140.761 143.974 140.497 143.954C138.103 143.788 135.737 143.54 133.401 143.21C133.327 143.199 133.258 143.164 133.205 143.111C133.152 143.058 133.117 142.99 133.105 142.916C133.094 142.842 133.106 142.766 133.141 142.699C133.175 142.632 133.23 142.579 133.297 142.546L133.657 142.378C133.865 142.282 133.921 142.13 133.825 141.922C132.745 139.634 130.905 140.802 129.041 140.466C128.919 140.442 128.792 140.452 128.675 140.496C128.557 140.54 128.455 140.615 128.377 140.714C127.737 141.508 127.039 141.706 126.281 141.306C124.484 140.351 122.836 140.218 121.337 140.906C121.226 140.956 121.103 140.977 120.983 140.966C120.862 140.955 120.747 140.912 120.649 140.842C118.719 139.439 116.871 139.495 115.105 141.01C114.935 141.154 114.737 141.226 114.513 141.226C113.505 141.234 110.913 142.234 110.329 141.226C110.217 141.028 110.129 141.039 110.065 141.258C109.207 144.202 107.441 146.308 104.769 147.578C104.743 146.65 104.465 146.196 103.937 146.218C106.551 145.023 107.844 143.242 107.817 140.874C108.175 138.836 107.828 136.794 106.777 134.746C107.567 133.935 106.751 132.847 104.329 131.482C104.932 131.332 105.305 131.02 105.449 130.546C105.54 130.236 105.449 129.991 105.177 129.81L103.569 128.714C103.345 128.559 103.095 128.474 102.817 128.458C93.3774 127.962 84.7695 131.37 82.8095 141.41C82.7615 141.655 82.6548 141.874 82.4895 142.066C80.4255 144.53 79.4761 147.079 79.6415 149.714C79.7321 151.09 79.7321 152.162 79.6415 152.93C79.6313 153.014 79.593 153.092 79.5327 153.152C79.4723 153.212 79.3936 153.249 79.3092 153.258C79.2248 153.268 79.1398 153.248 79.0679 153.203C78.9961 153.158 78.9417 153.09 78.9135 153.01C78.4921 151.831 78.2041 150.634 78.0495 149.418C78.0121 149.156 77.8628 149.036 77.6015 149.058C77.4255 149.079 77.2228 149.167 76.9935 149.322L75.3055 131.81C75.2841 124.844 75.2734 117.863 75.2734 110.866C75.2734 103.298 77.6334 96.7215 85.4814 94.2415C88.3774 93.3295 94.9028 91.9908 105.057 90.2255L105.065 91.7135C105.065 91.9215 105.167 92.0122 105.369 91.9855C117.617 90.4335 130.417 86.9135 140.337 79.9615C140.577 79.7962 140.737 79.5748 140.817 79.2975C141.111 78.3055 141.788 77.6922 142.849 77.4575C143.105 77.401 143.373 77.447 143.593 77.5855C148.737 80.8175 153.857 84.4335 159.273 86.6655C162.799 88.1162 166.98 89.6602 171.817 91.2975C178.857 93.6815 180.225 98.8095 180.457 106.106C180.644 111.962 180.727 117.812 180.705 123.658C180.697 124.674 181.273 125.498 181.321 126.578C181.332 126.839 181.468 126.988 181.729 127.026L181.985 127.058C182.188 127.084 182.292 127.204 182.297 127.418L182.345 129.474ZM86.5935 118.906C84.5055 121.13 82.6654 122.682 84.2734 125.394C84.3068 125.451 84.354 125.499 84.4108 125.534C84.4676 125.569 84.5323 125.589 84.5994 125.593C84.6664 125.597 84.7337 125.585 84.7955 125.557C84.8572 125.529 84.9114 125.487 84.9535 125.434C88.8335 120.322 92.2895 116.426 99.0095 116.538C100.721 116.57 102.841 117.402 104.873 117.506C105.145 117.522 105.385 117.436 105.593 117.25C108.313 114.818 105.529 111.442 102.665 111.586C96.2388 111.911 90.8815 114.351 86.5935 118.906ZM152.697 111.762C146.969 111.098 146.481 119.13 152.345 117.554C160.321 115.41 166.145 119.066 170.681 125.442C170.857 125.687 171.06 125.711 171.289 125.514C172.74 124.26 172.78 122.876 171.409 121.362C166.375 115.82 160.137 112.62 152.697 111.762Z" fill="#FBB380"/>
<path d="M36.2378 106.999C36.9944 106.89 37.5412 106.341 37.4593 105.772C37.3774 105.204 36.6977 104.831 35.9411 104.94C35.1846 105.049 34.6377 105.598 34.7196 106.167C34.8015 106.735 35.4813 107.108 36.2378 106.999Z" fill="#F1E8B9"/>
<path d="M57.5617 109.465C57.9244 109.881 58.095 110.311 58.0737 110.753C58.0639 110.89 58.016 111.021 57.9353 111.131C57.8547 111.241 57.7446 111.327 57.6176 111.377L55.8176 112.065C41.8416 116.977 35.3537 132.041 37.0897 146.097L37.1617 147.441L37.0656 147.929C37.0176 148.185 36.8657 148.297 36.6097 148.265L36.4097 148.233C36.303 148.223 36.247 148.164 36.2417 148.057C35.6497 137.953 36.1697 132.209 40.8417 123.553C44.5323 116.721 50.1057 112.025 57.5617 109.465Z" fill="#FCE4AD"/>
<path d="M86.5936 118.905C90.8816 114.351 96.2389 111.911 102.666 111.585C105.53 111.441 108.314 114.817 105.594 117.249C105.386 117.436 105.146 117.521 104.874 117.505C102.842 117.401 100.722 116.569 99.0097 116.537C92.2897 116.425 88.8336 120.321 84.9536 125.433C84.9116 125.486 84.8574 125.529 84.7956 125.557C84.7339 125.584 84.6666 125.597 84.5995 125.593C84.5325 125.589 84.4678 125.569 84.411 125.534C84.3542 125.499 84.307 125.451 84.2736 125.393C82.6656 122.681 84.5056 121.129 86.5936 118.905Z" fill="#2D0909"/>
<path d="M152.346 117.553C146.482 119.129 146.97 111.097 152.698 111.761C160.138 112.62 166.375 115.82 171.41 121.361C172.78 122.876 172.74 124.26 171.29 125.513C171.06 125.711 170.858 125.687 170.682 125.441C166.146 119.065 160.322 115.409 152.346 117.553Z" fill="#2D0909"/>
<path d="M55.8177 112.065L58.3057 112.433C58.5244 112.465 58.6737 112.585 58.7537 112.793C60.1617 116.532 61.039 120.401 61.3857 124.401C61.3979 124.524 61.382 124.648 61.339 124.764C61.2961 124.881 61.2273 124.986 61.1377 125.073C59.8897 126.284 59.4043 127.737 59.6817 129.433C59.7297 129.727 59.6443 129.975 59.4257 130.177C56.3163 133.105 54.0523 136.596 52.6337 140.649C52.559 140.873 52.4203 141.047 52.2177 141.169C49.2257 143.049 50.6657 150.865 51.3777 154.297C51.3896 154.354 51.3903 154.413 51.3799 154.47C51.3694 154.527 51.3479 154.581 51.3167 154.629C51.2854 154.678 51.2451 154.719 51.1979 154.752C51.1507 154.784 51.0976 154.806 51.0417 154.817C48.2177 155.441 48.7537 161.033 48.8257 163.545C48.8363 163.86 48.6897 164.057 48.3857 164.137C46.4577 164.657 44.8817 164.177 43.9137 162.289C41.295 157.196 39.3377 151.847 38.0417 146.241C38.0141 146.13 37.9496 146.032 37.8593 145.964C37.7689 145.895 37.6581 145.861 37.5457 145.865C37.3643 145.871 37.2123 145.948 37.0897 146.097C35.3537 132.041 41.8417 116.977 55.8177 112.065ZM54.0977 118.569C46.5057 122.089 39.4577 133.497 40.8977 142.177C40.951 142.503 41.1297 142.604 41.4337 142.481C42.7777 141.943 43.951 140.953 44.9537 139.513C46.7937 136.857 62.0497 116.801 54.4817 118.441C54.3489 118.468 54.2199 118.511 54.0977 118.569Z" fill="#2E1319"/>
<path d="M40.8979 142.177C39.4579 133.497 46.5059 122.089 54.0979 118.569C54.2201 118.511 54.349 118.468 54.4818 118.441C62.0498 116.801 46.7939 136.857 44.9539 139.513C43.9512 140.953 42.7778 141.943 41.4338 142.481C41.1298 142.604 40.9512 142.503 40.8979 142.177Z" fill="#B26A35"/>
<path d="M104.33 131.481C95.2656 124.881 76.7057 139.193 87.1057 145.209C88.6203 147.273 90.295 148.201 92.1296 147.993C96.423 149.071 100.636 148.932 104.77 147.577C107.442 146.308 109.207 144.201 110.066 141.257C110.13 141.039 110.218 141.028 110.33 141.225C110.914 142.233 113.506 141.233 114.514 141.225C114.738 141.225 114.935 141.153 115.106 141.009C116.871 139.495 118.719 139.439 120.65 140.841C120.747 140.912 120.862 140.955 120.983 140.966C121.104 140.977 121.226 140.956 121.338 140.905C122.836 140.217 124.484 140.351 126.282 141.305C127.039 141.705 127.738 141.508 128.378 140.713C128.455 140.615 128.558 140.54 128.675 140.496C128.792 140.452 128.919 140.442 129.042 140.465C130.906 140.801 132.746 139.633 133.826 141.921C133.922 142.129 133.866 142.281 133.658 142.377L133.298 142.545C133.23 142.579 133.175 142.632 133.141 142.699C133.106 142.766 133.094 142.842 133.105 142.916C133.117 142.99 133.152 143.058 133.205 143.111C133.259 143.164 133.327 143.198 133.402 143.209C135.738 143.54 138.103 143.788 140.498 143.953C140.761 143.974 141.01 144.087 141.202 144.273L141.538 144.617C141.772 144.847 141.89 144.796 141.89 144.465V143.241C141.89 143.111 141.936 142.985 142.018 142.883C142.1 142.782 142.215 142.711 142.341 142.684C142.468 142.657 142.6 142.674 142.715 142.734C142.829 142.793 142.919 142.89 142.97 143.009C143.423 144.039 144.194 144.396 145.282 144.081C145.532 144.012 145.759 144.052 145.962 144.201L148.394 145.969C148.602 146.119 148.831 146.217 149.082 146.265C150.586 146.553 151.058 148.753 152.666 148.625C153.204 148.583 153.242 148.425 152.778 148.153C150.783 146.985 149.164 145.417 147.922 143.449C147.877 143.385 147.86 143.305 147.874 143.228C147.889 143.15 147.933 143.082 147.998 143.037C148.062 142.993 148.142 142.976 148.219 142.99C148.297 143.004 148.365 143.049 148.41 143.113C148.548 143.295 148.682 143.543 148.81 143.857C150.767 146.369 153.172 147.855 156.026 148.313C160.346 149.009 167.858 148.169 170.954 144.513C172.463 144.055 173.324 143.055 173.538 141.513C173.57 141.273 173.706 141.129 173.946 141.081C174.287 141.023 174.378 141.18 174.218 141.553C174.156 141.696 174.127 141.851 174.132 142.006C174.137 142.162 174.176 142.314 174.246 142.453C174.316 142.592 174.416 142.714 174.538 142.81C174.66 142.906 174.802 142.974 174.954 143.009C176.65 143.415 178.367 143.78 180.106 144.105C180.404 144.159 180.522 144.332 180.458 144.625L180.378 145.033C177.81 155.225 172.666 159.425 164.642 165.801C156.41 172.337 145.69 176.153 135.482 178.129C131.658 178.873 127.434 178.745 123.402 178.857C117.682 179.017 112.93 178.065 107.594 176.681C107.536 176.666 107.475 176.669 107.419 176.692C107.364 176.714 107.317 176.754 107.286 176.806C107.255 176.858 107.241 176.918 107.246 176.98C107.251 177.041 107.274 177.099 107.314 177.145C107.735 177.636 108.276 177.975 108.938 178.161C109.146 178.22 109.356 178.252 109.57 178.257C110.476 178.268 111.252 178.665 111.898 179.449C97.3937 176.881 82.6657 169.673 77.5617 155.073L76.9937 149.321C77.223 149.167 77.4257 149.079 77.6017 149.057C77.863 149.036 78.0123 149.156 78.0497 149.417C78.2043 150.633 78.4923 151.831 78.9137 153.009C78.9419 153.09 78.9963 153.158 79.0681 153.203C79.14 153.248 79.225 153.268 79.3094 153.258C79.3938 153.249 79.4725 153.212 79.5329 153.152C79.5932 153.092 79.6315 153.014 79.6417 152.929C79.7323 152.161 79.7323 151.089 79.6417 149.713C79.4763 147.079 80.4256 144.529 82.4896 142.065C82.655 141.873 82.7617 141.655 82.8097 141.409C84.7697 131.369 93.3776 127.961 102.818 128.457C103.095 128.473 103.346 128.559 103.57 128.713L105.178 129.809C105.45 129.991 105.54 130.236 105.45 130.545C105.306 131.02 104.932 131.332 104.33 131.481ZM130.482 155.921C127.922 156.433 126.754 157.129 123.866 155.569C123.817 155.543 123.761 155.533 123.707 155.542C123.652 155.55 123.602 155.577 123.564 155.617C123.527 155.658 123.504 155.71 123.499 155.765C123.494 155.82 123.508 155.875 123.538 155.921C124.93 158.097 128.746 157.185 130.578 156.177C131.1 155.884 131.068 155.799 130.482 155.921ZM118.314 164.537C117.972 164.068 117.508 163.628 116.922 163.217C116.452 162.892 116.372 162.969 116.682 163.449C120.29 169.025 124.85 173.153 132.026 170.985C135.108 170.057 137.247 167.881 138.442 164.457C138.97 163.748 139.236 163.364 139.242 163.305C139.402 162.233 138.975 161.892 137.962 162.281C130.57 165.129 125.674 164.305 118.314 164.537Z" fill="#FCC093"/>
<path d="M162.154 129.713C155.986 130.569 149.882 131.849 150.09 139.049C150.143 140.937 150.922 142.316 152.426 143.185C152.639 143.777 152.999 144.193 153.506 144.433C153.703 144.524 153.903 144.532 154.106 144.457L159.762 142.377C159.993 142.29 160.248 142.296 160.474 142.393L161.778 142.961C157.644 147.703 153.626 147.863 149.722 143.441C145.458 134.569 153.146 126.537 162.154 129.713Z" fill="#932318"/>
<path d="M74.7776 131.473C74.1856 131.649 73.687 131.959 73.2816 132.401C73.1163 132.583 73.0257 132.799 73.0097 133.049L72.7537 137.761C72.7378 137.989 72.7677 138.22 72.8417 138.441C73.055 139.076 72.855 139.532 72.2416 139.809C68.3696 141.561 64.1536 143.449 64.2656 148.273C64.3776 153.377 70.4096 155.249 74.4416 155.401C74.7171 155.412 74.989 155.333 75.2176 155.177L76.2497 154.481C76.5003 154.311 76.671 154.369 76.7617 154.657L77.0336 155.521C67.7696 159.153 60.5483 157.02 55.3696 149.121L55.8176 148.593C55.9776 148.407 56.031 148.193 55.9776 147.953C54.5323 141.532 56.8683 135.996 62.9856 131.345C66.5696 129.212 70.5003 129.255 74.7776 131.473Z" fill="#F89564"/>
<path d="M104.33 131.481C106.751 132.847 107.567 133.935 106.778 134.745C104.5 132.628 102.119 131.863 99.6337 132.449C97.879 131.943 96.4337 131.873 95.2977 132.241C88.791 134.343 85.9564 138.631 86.7937 145.105C86.895 145.143 86.999 145.177 87.1057 145.209C76.7057 139.193 95.2657 124.881 104.33 131.481Z" fill="#4C1813"/>
<path d="M162.154 129.714C167.599 131.356 171.143 134.778 172.786 139.978C172.871 140.234 172.871 140.492 172.786 140.754C172.46 141.772 171.818 142.62 170.858 143.297C170.404 137.425 167.674 133.548 162.666 131.666C160.914 131.01 153.546 132.586 157.922 135.466C158.135 135.604 158.356 135.623 158.586 135.522L159.698 135.034C160.092 135.044 160.29 135.188 160.29 135.466C160.311 140.687 157.69 143.26 152.426 143.185C150.922 142.316 150.143 140.938 150.09 139.049C149.882 131.849 155.986 130.57 162.154 129.714Z" fill="#2D0909"/>
<path d="M135.642 180.922L120.17 180.714L111.898 179.45C111.252 178.666 110.476 178.268 109.57 178.258C109.356 178.252 109.146 178.22 108.938 178.162C108.276 177.975 107.735 177.636 107.314 177.146C107.274 177.099 107.251 177.041 107.246 176.98C107.241 176.919 107.255 176.858 107.286 176.806C107.317 176.754 107.364 176.714 107.419 176.692C107.475 176.669 107.536 176.666 107.594 176.682C112.93 178.066 117.682 179.018 123.402 178.858C127.434 178.746 131.658 178.874 135.482 178.13C145.69 176.154 156.41 172.338 164.642 165.802C172.666 159.426 177.81 155.226 180.378 145.034C180.682 144.996 181.01 144.818 181.362 144.498L180.362 154.106C180.339 154.313 180.372 154.527 180.454 154.721C180.537 154.915 180.666 155.081 180.825 155.198C180.985 155.315 181.168 155.378 181.351 155.378C181.535 155.379 181.711 155.317 181.858 155.202C182.21 154.93 182.463 155.012 182.618 155.45C182.691 155.659 182.835 155.836 183.025 155.951C183.214 156.067 183.438 156.113 183.658 156.082C188.18 155.442 191.53 153.316 193.706 149.706C197.066 144.13 192.914 140.634 188.074 139.002C188.194 136.45 189.394 131.554 191.962 130.258C195.154 128.65 199.842 131.314 202.05 133.706C206.89 138.97 206.97 145.186 202.81 150.954C198.506 156.916 192.308 158.988 184.218 157.17C183.935 157.106 183.666 157.002 183.41 156.858L181.594 155.858C181.252 155.666 180.996 155.746 180.826 156.098C172.354 173.242 153.274 179.546 135.642 180.922Z" fill="#F89564"/>
<path d="M62.9856 131.345C56.8683 135.996 54.5323 141.532 55.9776 147.953C56.031 148.193 55.9776 148.407 55.8176 148.593L55.3696 149.121C52.4976 141.497 55.5216 134.217 62.9856 131.345Z" fill="#F7CD97"/>
<path d="M170.858 143.298C170.703 143.671 170.735 144.076 170.954 144.514C167.858 148.17 160.346 149.01 156.026 148.314C153.172 147.855 150.767 146.37 148.81 143.858L149.722 143.442C153.626 147.863 157.644 147.703 161.778 142.962C163.378 140.794 164.41 135.97 161.69 134.002C161.578 133.921 161.443 133.88 161.305 133.884C161.168 133.889 161.036 133.938 160.93 134.026L159.698 135.034L158.586 135.522C158.356 135.623 158.135 135.604 157.922 135.466C153.546 132.586 160.914 131.01 162.666 131.666C167.674 133.548 170.404 137.426 170.858 143.298Z" fill="#F8F5F3"/>
<path d="M74.7774 131.473C74.7294 131.793 74.9054 131.905 75.3054 131.809L76.9934 149.321L77.5614 155.073C77.0174 155.068 76.8414 155.217 77.0334 155.521L76.7614 154.657C76.6707 154.369 76.5001 154.311 76.2494 154.481L75.2174 155.177C74.9888 155.333 74.7168 155.412 74.4414 155.401C70.4094 155.249 64.3774 153.377 64.2654 148.273C64.1534 143.449 68.3694 141.561 72.2414 139.809C72.8547 139.532 73.0547 139.076 72.8414 138.441C72.7674 138.22 72.7375 137.989 72.7534 137.761L73.0094 133.049C73.0254 132.799 73.1161 132.583 73.2814 132.401C73.6867 131.959 74.1854 131.649 74.7774 131.473Z" fill="#EA8359"/>
<path d="M99.6336 132.449C99.9216 135.201 99.1749 136.772 97.3936 137.161C96.7269 136.761 96.5056 135.951 96.7296 134.729C96.7776 134.463 96.6656 134.329 96.3936 134.329C95.4549 134.335 94.8523 134.759 94.5856 135.601C93.0976 140.345 95.6416 144.305 99.6736 146.449C101.071 147.196 102.492 147.119 103.938 146.217C104.466 146.196 104.743 146.649 104.77 147.577C100.636 148.932 96.4229 149.071 92.1296 147.993L86.7936 145.105C85.9563 138.631 88.7909 134.343 95.2976 132.241C96.4336 131.873 97.8789 131.943 99.6336 132.449Z" fill="#F8F5F3"/>
<path d="M106.778 134.745C107.828 136.793 108.175 138.836 107.818 140.873C105.108 144.1 102.38 144.82 99.6337 143.033C99.4044 142.884 99.2231 142.689 99.0898 142.449C98.8551 142.039 98.5244 141.724 98.0978 141.505C97.8684 141.388 97.6951 141.215 97.5777 140.985C96.9377 139.7 96.8764 138.425 97.3938 137.161C99.1751 136.772 99.9217 135.201 99.6337 132.449C102.119 131.863 104.5 132.628 106.778 134.745Z" fill="#2D0909"/>
<path d="M161.778 142.961L160.474 142.393C160.248 142.296 159.993 142.29 159.762 142.377L154.106 144.457C153.903 144.532 153.703 144.524 153.506 144.433C152.999 144.193 152.639 143.777 152.426 143.185C157.69 143.26 160.311 140.687 160.29 135.465C160.29 135.188 160.092 135.044 159.698 135.033L160.93 134.025C161.036 133.938 161.168 133.889 161.306 133.884C161.443 133.88 161.578 133.921 161.69 134.001C164.41 135.969 163.378 140.793 161.778 142.961Z" fill="#6D261A"/>
<path d="M97.3937 137.161C96.8764 138.425 96.9377 139.7 97.5777 140.985C97.695 141.215 97.8684 141.388 98.0977 141.505C98.5244 141.724 98.855 142.039 99.0897 142.449C99.223 142.689 99.4043 142.884 99.6337 143.033C102.38 144.82 105.108 144.1 107.818 140.873C107.844 143.241 106.551 145.023 103.938 146.217C102.492 147.119 101.071 147.196 99.6737 146.449C95.6417 144.305 93.0977 140.345 94.5857 135.601C94.8523 134.759 95.455 134.335 96.3937 134.329C96.6657 134.329 96.7777 134.463 96.7297 134.729C96.5057 135.951 96.727 136.761 97.3937 137.161Z" fill="#6D261A"/>
<path d="M182.649 137.777C183.572 141.127 184.927 143.892 186.713 146.073C186.86 146.252 187.054 146.387 187.273 146.465C188.74 146.983 189.26 146.455 188.833 144.881C188.327 142.988 188.073 141.028 188.073 139.001C192.913 140.633 197.065 144.129 193.705 149.705C191.529 153.316 188.18 155.441 183.657 156.081C183.438 156.112 183.214 156.066 183.024 155.951C182.835 155.836 182.691 155.659 182.617 155.449C182.463 155.012 182.209 154.929 181.857 155.201C181.711 155.317 181.535 155.379 181.351 155.378C181.167 155.378 180.984 155.315 180.825 155.198C180.665 155.081 180.536 154.915 180.454 154.721C180.371 154.526 180.339 154.312 180.361 154.105L181.361 144.497C181.18 141.884 181.609 139.644 182.649 137.777Z" fill="#EA8359"/>
<path d="M87.106 145.209C86.9993 145.177 86.8953 145.143 86.7939 145.105L92.1299 147.993C90.2953 148.201 88.6206 147.273 87.106 145.209Z" fill="#B26A35"/>
<path d="M41.9218 162.866C44.9885 168.86 49.1032 174.268 54.2658 179.09C67.0738 191.034 80.4338 204.042 89.4818 220.058C90.3938 221.674 90.4018 223.514 90.7938 225.298C90.9538 225.932 90.9565 226.583 90.8018 227.25C90.8445 227.708 90.6712 228.26 90.2818 228.906C73.4818 222.388 59.2018 212.188 47.4418 198.306C38.0872 187.266 31.3565 174.786 27.2499 160.866L25.2979 152.866C25.6819 152.988 26.0098 153.234 26.2818 153.602C26.4525 153.836 26.6178 153.834 26.7778 153.594L27.8258 152.034C27.9698 151.815 28.1698 151.706 28.4258 151.706C31.4018 151.682 31.7698 146.194 35.4178 149.394C35.7165 149.655 36.0258 149.783 36.3458 149.778C36.4738 149.778 36.5485 149.842 36.5698 149.97C37.3218 154.466 38.7512 158.73 40.8579 162.762C40.9912 163.012 41.1965 163.122 41.4738 163.09C41.6552 163.063 41.8045 162.988 41.9218 162.866Z" fill="#5DA491"/>
<path d="M123.865 155.569C126.753 157.129 127.921 156.433 130.481 155.921C131.068 155.799 131.1 155.884 130.577 156.177C128.745 157.185 124.929 158.097 123.537 155.921C123.507 155.875 123.494 155.82 123.499 155.765C123.503 155.71 123.526 155.658 123.564 155.617C123.602 155.577 123.652 155.55 123.707 155.542C123.761 155.533 123.817 155.543 123.865 155.569Z" fill="#CF7253"/>
<path d="M138.441 164.457C134.105 165.865 121.985 168.121 118.313 164.537C125.673 164.305 130.569 165.129 137.961 162.281C138.975 161.892 139.401 162.233 139.241 163.305C139.236 163.364 138.969 163.748 138.441 164.457Z" fill="#EA8359"/>
<path d="M118.313 164.537C121.985 168.121 134.105 165.865 138.441 164.457C137.247 167.881 135.108 170.057 132.025 170.985C124.849 173.153 120.289 169.025 116.681 163.449C116.372 162.969 116.452 162.892 116.921 163.217C117.508 163.628 117.972 164.068 118.313 164.537ZM126.113 169.969C126.007 170.204 126.073 170.375 126.313 170.481C127.953 171.233 133.161 170.385 134.049 168.769C134.225 168.449 134.132 168.297 133.769 168.313C132.081 168.385 126.881 168.281 126.113 169.969Z" fill="#510607"/>
<path d="M126.114 169.969C126.882 168.281 132.082 168.385 133.77 168.313C134.132 168.297 134.226 168.449 134.05 168.769C133.162 170.385 127.954 171.233 126.314 170.481C126.074 170.375 126.007 170.204 126.114 169.969Z" fill="#BE3624"/>
<path d="M220.69 182.929C209.021 203.863 192.005 218.601 169.642 227.145C167.378 217.801 164.338 211.369 162.346 204.673C162.255 204.359 162.367 204.167 162.682 204.097L163.298 203.961C183.402 206.361 201.666 199.633 211.77 181.569C212.42 181.537 212.893 181.265 213.186 180.753C213.287 180.577 213.418 180.433 213.578 180.321L216.018 178.577C216.252 178.412 216.45 178.449 216.61 178.689C217.213 179.639 217.498 180.711 217.466 181.905C217.465 181.967 217.479 182.029 217.507 182.084C217.535 182.139 217.575 182.187 217.626 182.223C217.676 182.259 217.734 182.283 217.796 182.291C217.857 182.3 217.919 182.294 217.978 182.273L218.546 182.057C218.781 181.972 218.978 182.028 219.138 182.225C219.533 182.716 220.05 182.951 220.69 182.929Z" fill="#5DA491"/>
<path d="M135.642 180.922C135.007 182.538 135.178 183.935 136.154 185.114C133.554 185.754 120.409 187.258 119.417 184.25C119.94 183.183 120.191 182.004 120.169 180.714L135.642 180.922Z" fill="#CF7253"/>
<path d="M119.418 184.249C120.41 187.257 133.554 185.753 136.154 185.113C137.482 185.249 140.57 185.097 139.65 186.625L138.378 190.417L137.618 187.649C137.584 187.524 137.521 187.409 137.435 187.313C137.348 187.216 137.24 187.142 137.119 187.095C136.999 187.048 136.869 187.031 136.74 187.043C136.611 187.056 136.487 187.1 136.378 187.169C133.194 189.207 130.298 191.583 127.69 194.297C127.514 194.479 127.335 194.481 127.154 194.305L119.426 186.785C119.207 186.577 119.018 186.345 118.858 186.089L118.114 184.889C118.626 184.873 119.06 184.66 119.418 184.249Z" fill="#E27D47"/>
<path d="M118.114 184.889L118.858 186.089C119.018 186.345 119.207 186.577 119.426 186.785L127.154 194.305C127.335 194.481 127.514 194.479 127.69 194.297C130.298 191.583 133.194 189.207 136.378 187.169C136.487 187.1 136.611 187.056 136.74 187.044C136.868 187.031 136.999 187.048 137.119 187.095C137.24 187.142 137.348 187.216 137.435 187.313C137.521 187.409 137.584 187.524 137.618 187.649L138.378 190.417C136.53 195.401 131.762 202.041 126.458 203.345C125.279 203.633 124.37 203.537 123.73 203.057C117.916 198.695 115.034 192.831 115.082 185.465L118.114 184.889Z" fill="#EF8D50"/>
<path d="M115.081 185.465C115.033 192.831 117.916 198.695 123.729 203.057C124.369 203.537 125.279 203.633 126.457 203.345C131.761 202.041 136.529 195.401 138.377 190.417L139.649 186.625C140.007 186.988 140.364 186.9 140.721 186.361C140.881 186.121 141.105 186.025 141.393 186.073L143.793 186.489C143.633 192.201 142.089 200.961 137.721 204.569C137.519 204.735 137.303 204.751 137.073 204.617C136.327 204.175 135.921 203.5 135.857 202.593C135.854 202.514 135.823 202.439 135.77 202.381C135.717 202.322 135.645 202.285 135.566 202.274C135.488 202.264 135.409 202.281 135.342 202.323C135.275 202.366 135.225 202.43 135.201 202.505L132.897 208.713C132.844 208.856 132.756 208.983 132.641 209.083C132.526 209.183 132.387 209.252 132.239 209.284C132.09 209.317 131.935 209.312 131.789 209.269C131.643 209.227 131.51 209.149 131.401 209.041C129.433 207.057 126.825 205.153 124.457 208.033C121.497 211.649 118.457 204.617 118.017 202.513C117.995 202.411 117.946 202.316 117.874 202.24C117.802 202.163 117.712 202.107 117.611 202.077C117.51 202.048 117.403 202.046 117.302 202.072C117.2 202.098 117.108 202.151 117.033 202.225L115.425 203.833C115.312 203.946 115.175 204.032 115.025 204.086C114.875 204.141 114.716 204.162 114.557 204.148C114.399 204.134 114.245 204.086 114.108 204.007C113.97 203.928 113.852 203.819 113.761 203.689C110.273 198.713 110.113 193.857 110.441 186.609L115.081 185.465Z" fill="#694B25"/>
<path d="M110.442 186.609C110.114 193.857 110.274 198.714 113.762 203.69C113.853 203.819 113.971 203.928 114.108 204.007C114.246 204.086 114.399 204.135 114.557 204.148C114.716 204.162 114.876 204.141 115.026 204.087C115.176 204.032 115.312 203.946 115.426 203.833L117.034 202.226C117.108 202.151 117.201 202.098 117.302 202.072C117.404 202.046 117.511 202.048 117.611 202.077C117.712 202.107 117.803 202.163 117.874 202.24C117.946 202.316 117.995 202.411 118.018 202.514C118.458 204.618 121.498 211.649 124.458 208.033C126.826 205.153 129.434 207.058 131.402 209.042C131.51 209.149 131.643 209.227 131.789 209.27C131.936 209.312 132.09 209.317 132.239 209.285C132.388 209.252 132.526 209.183 132.641 209.083C132.756 208.983 132.844 208.856 132.898 208.714L135.202 202.505C135.226 202.43 135.275 202.366 135.342 202.323C135.409 202.281 135.488 202.264 135.567 202.274C135.645 202.285 135.717 202.322 135.77 202.381C135.824 202.439 135.855 202.515 135.858 202.594C135.922 203.5 136.327 204.175 137.074 204.618C137.303 204.751 137.519 204.735 137.722 204.57C142.09 200.962 143.634 192.202 143.794 186.49C152.012 189.7 157.874 195.335 161.378 203.394C161.495 203.666 161.7 203.815 161.994 203.842L163.298 203.962L162.682 204.098C162.367 204.167 162.255 204.359 162.346 204.674C164.338 211.37 167.378 217.802 169.642 227.146C166.159 228.778 162.65 229.996 159.114 230.802C158.836 230.86 158.687 230.751 158.666 230.474C158.426 227.266 157.41 218.498 153.394 217.37L155.058 205.042C155.069 204.943 155.047 204.843 154.995 204.758C154.942 204.673 154.862 204.609 154.769 204.576C154.675 204.542 154.572 204.542 154.478 204.574C154.384 204.606 154.303 204.669 154.25 204.753C154.01 205.148 153.658 205.199 153.194 204.905C152.986 204.772 152.828 204.594 152.722 204.37C151.095 200.951 149.991 197.108 149.41 192.842C149.383 192.644 149.263 192.54 149.05 192.529C148.879 192.524 148.802 192.607 148.818 192.778L151.322 220.866L151.506 232.762C136.263 236.148 120.991 236.199 105.69 232.914C105.573 232.889 105.468 232.825 105.393 232.731C105.319 232.638 105.279 232.521 105.282 232.402L105.426 223.322C105.564 217.679 106.172 212.127 107.25 206.666C107.372 206.047 107.343 206.039 107.162 206.642L101.914 223.953L101.01 231.378C101.004 231.429 100.986 231.479 100.959 231.523C100.932 231.568 100.895 231.606 100.852 231.635C100.809 231.664 100.759 231.683 100.708 231.691C100.656 231.699 100.604 231.696 100.554 231.681L90.2817 228.905C90.6711 228.26 90.8444 227.708 90.8018 227.25L91.3377 228.098C91.5297 228.396 91.6658 228.372 91.7458 228.026C92.0871 226.634 92.3644 224.535 92.5777 221.729C92.9057 217.425 95.0577 208.401 96.0257 204.881C97.6577 198.972 100.54 193.697 104.674 189.057L110.442 186.609Z" fill="#A69141"/>
<path d="M104.674 189.057C100.541 193.697 97.6579 198.972 96.0259 204.881C95.0579 208.401 92.9059 217.425 92.5779 221.729C92.3646 224.535 92.0873 226.633 91.7459 228.025C91.6659 228.372 91.5299 228.396 91.3379 228.097L90.802 227.249C90.9566 226.583 90.9539 225.932 90.7939 225.297C91.3539 215.289 94.3539 193.801 104.674 189.057Z" fill="#FCC093"/>
<path d="M153.394 217.37C152.748 217.476 152.271 217.858 151.962 218.514C151.946 219.287 151.732 220.071 151.321 220.866L148.817 192.778C148.801 192.607 148.879 192.524 149.05 192.53C149.263 192.54 149.383 192.644 149.41 192.842C149.991 197.108 151.095 200.951 152.721 204.37C152.828 204.594 152.986 204.772 153.194 204.906C153.658 205.199 154.01 205.148 154.25 204.754C154.303 204.67 154.384 204.606 154.478 204.574C154.572 204.542 154.674 204.542 154.768 204.576C154.862 204.609 154.942 204.673 154.994 204.758C155.047 204.843 155.069 204.943 155.058 205.042L153.394 217.37Z" fill="#7F8060"/>
<path d="M105.426 223.321C104.738 222.943 104.151 222.791 103.666 222.865C103.388 222.908 103.194 223.06 103.082 223.321C102.799 224.004 102.41 224.215 101.914 223.953L107.162 206.641C107.343 206.039 107.372 206.047 107.25 206.665C106.172 212.127 105.564 217.679 105.426 223.321Z" fill="#220509"/>
<path d="M151.961 218.513C152.132 220.257 153.183 221.204 155.113 221.353C155.458 221.379 155.785 221.518 156.041 221.75C156.298 221.982 156.47 222.293 156.529 222.633L157.945 230.745C158.004 231.06 157.876 231.255 157.561 231.329L151.505 232.761L151.321 220.865C151.732 220.071 151.945 219.287 151.961 218.513Z" fill="#507B65"/>
</svg>
